<?xml version="1.0" encoding="utf-8"?>
<!-- Generator: Adobe Illustrator 19.1.0, SVG Export Plug-In . SVG Version: 6.00 Build 0)  -->
<svg version="1.1" id="Слой_1" xmlns="http://www.w3.org/2000/svg" xmlns:xlink="http://www.w3.org/1999/xlink" x="0px" y="0px"
	 viewBox="-155 352 301 89" style="enable-background:new -155 352 301 89;" xml:space="preserve">
<style type="text/css">
	.st0{fill:#17181A;}
	.st1{fill:#fff;}
</style>
<title>Agey Tomesh + WAM лого</title>
<desc>Created with Sketch.</desc>
<g id="ШАПКА" transform="translate(-371.000000, -19.000000)">
	<g id="Agey-Tomesh-_x2B_-WAM-лого">
		<g transform="translate(371.000000, 19.000000)">
			<g id="Agey-Tomesh-LOGO-Black-Only" transform="translate(1.000000, 0.000000)">
				<path id="Fill-1" class="st0" d="M-137.9,371.1h-5.2c0.9-2.8,1.5-4.8,1.5-4.8c0.5-1.7,0.7-2.4,1.2-4.3c0.4,1.8,0.5,2.3,1.1,4.2
					C-139.4,366.3-138.4,369.5-137.9,371.1z M-136.3,353.1h-8.5l-10.3,28h8.6l1.4-4h9l1.4,4h8.6L-136.3,353.1z"/>
				<path id="Fill-2" class="st0" d="M-100,380.5h-5.4l-0.3-2.8c-2.1,2.5-4.7,3.5-8,3.5c-7.9,0-13.2-5.9-13.2-14.5
					c0-8.5,5.9-14.5,14.2-14.5c6.2,0,11.6,4.1,12.4,10.4h-8.2c-0.5-2.1-2-3.2-4.3-3.2c-4.5,0-5.4,4.2-5.4,7.8c0,4.8,2,7.4,5.9,7.4
					c2.5,0,4.2-1.2,4.8-3.2h-3.7v-6h11.2V380.5"/>
				<polyline id="Fill-3" class="st0" points="-71.4,359.9 -85.8,359.9 -85.8,363.4 -72.7,363.4 -72.7,369.9 -85.8,369.9 -85.8,374 
					-71,374 -71,381.1 -94,381.1 -94,353.1 -71.4,353.1 -71.4,359.9 				"/>
				<path id="Fill-4" class="st0" d="M-51.9,371v10.1h-8.3v-10.3l-9.8-17.7h9.4l2.1,4.4c0.9,2,1.9,4.1,2.6,6.2
					c0.9-2.3,1.9-4.5,2.9-6.8l1.8-3.9h9.2L-51.9,371"/>
				<polyline id="Fill-5" class="st0" points="-6,360.3 -13.8,360.3 -13.8,381.1 -22.3,381.1 -22.3,360.3 -30,360.3 -30,353.1 
					-6,353.1 -6,360.3 				"/>
				<path id="Fill-6" class="st0" d="M8.1,358.9c3.4,0,5.3,2.8,5.3,7.4c0,5.2-1.9,8-5.3,8c-3.5,0-5.5-2.8-5.5-7.8
					C2.6,361.8,4.7,358.9,8.1,358.9z M8.2,352.1c-8.6,0-14.2,5.7-14.2,14.5c0,8.7,5.7,14.5,14.1,14.5c8.3,0,13.9-5.8,13.9-14.5
					C22,358,16.5,352.1,8.2,352.1z"/>
				<path id="Fill-7" class="st0" d="M59,381.1h-8.2v-4.2c0-5.3,0.1-10.6,0.3-15.9l-5.3,20.1h-6.5L33.9,361
					c0.3,6.6,0.3,8.3,0.3,14.7v5.4H26v-28h12.5l1.8,7.3c0.9,3.5,1.6,7,2.2,10.6c0.6-3.7,1.5-7.2,2.4-10.8l1.8-7.1H59V381.1"/>
				<polyline id="Fill-8" class="st0" points="87.6,359.9 73.2,359.9 73.2,363.4 86.3,363.4 86.3,369.9 73.2,369.9 73.2,374 88,374 
					88,381.1 65,381.1 65,353.1 87.6,353.1 87.6,359.9 				"/>
				<path id="Fill-9" class="st0" d="M106.8,361.1c0-1.7-1.4-2.7-3.6-2.7c-1.8,0-2.8,0.6-2.8,1.7c0,1.7,4.8,2.4,6,2.7
					c4.7,1.2,9.7,3,9.7,8.8s-4.8,9.4-12.3,9.4c-7.8,0-12.7-3.8-12.7-10h8.6c0.2,2.7,1.9,3.6,4.4,3.6c2.2,0,3.5-0.9,3.5-2.3
					c0-0.5-0.2-0.8-0.6-1.1c-1.1-0.9-6-2.1-7.9-2.8c-4-1.4-6.9-2.9-6.9-7.7c0-5.2,4.6-8.7,11.4-8.7c7.2,0,11.3,3.3,11.4,9h-8.2"/>
				<polyline id="Fill-10" class="st0" points="145,381.1 136.5,381.1 136.5,370 128.5,370 128.5,381.1 120,381.1 120,353.1 
					128.5,353.1 128.5,362.5 136.5,362.5 136.5,353.1 145,353.1 145,381.1 				"/>
			</g>
			<path id="WAM" class="st0" d="M-115.8,413.1l-7.7,28h-8.4l-1.3-6.8c-0.7-3.8-1.4-7.6-1.8-11.4c-0.3,3.8-1,7.5-1.7,11.3l-1.2,6.9
				h-8.5l-7.7-28h8.5l1.4,6.3c1,4.4,1.7,8.9,2,13.4c0.4-4.5,1.2-8.8,2.1-13.3l1.3-6.5h7.6l1.1,5.6c0.9,4.7,1.9,9.4,2.2,14.2
				c0.4-5,1.3-9.9,2.4-14.7l1.1-5H-115.8z M-100,413.1l10.3,28h-8.7l-1.4-4h-9l-1.4,4h-8.7l10.3-28H-100z M-101.7,431.1
				c-0.5-1.6-1.5-4.8-1.5-4.8c-0.6-1.9-0.7-2.4-1.1-4.2c-0.5,1.9-0.6,2.6-1.2,4.3c0,0-0.6,1.9-1.5,4.8L-101.7,431.1L-101.7,431.1z
				 M-56,413.1v28h-8v-4.2c0-5.3,0.1-10.6,0.3-15.9l-5.2,20.1h-6.3l-5.2-20.1c0.3,6.6,0.3,8.3,0.3,14.7v5.4h-8v-28H-76l1.8,7.3
				c0.9,3.5,1.6,7,2.1,10.6c0.6-3.7,1.5-7.2,2.3-10.8l1.7-7.1H-56z"/>
			<g id="_x2014_-red" transform="translate(0.000000, 45.000000)">
				<polygon id="Line-Copy" class="st1" points="-155,353.1 -155,352.1 146,352.1 146,353.1 				"/>
			</g>
		</g>
	</g>
</g>
<g transform="translate(-922.000000, -88.000000)">
	<g id="Group" transform="translate(922.000000, 88.000000)">
		<path id="HSE-ART-BOOKS" class="st0" d="M-35.5,433.1v-12h1.2v5.1h3.7v-5.1h1.2v12h-1.2v-5.9h-3.7v5.9H-35.5z M-16.1,423.6
			l-1.2,0.2c-0.2-0.9-0.6-1.8-1.7-1.8c-1.1,0-1.6,0.9-1.6,1.9s0.2,1.3,2.1,2.4c1.5,0.9,2.5,1.6,2.5,3.5s-1,3.4-3,3.4
			c-2.1,0-2.9-1.4-3.1-3.3l1.2-0.2c0.2,1.3,0.5,2.3,1.9,2.3c1,0,1.8-0.7,1.8-2.1c0-1.6-1-2.1-2.3-2.9c-1.4-0.8-2.3-1.4-2.3-3.2
			c0-1.6,1.1-3.1,2.8-3.1C-17.2,420.9-16.4,422.1-16.1,423.6z M-8.1,433.1v-12h5.9v1.1h-4.7v4h3.8v1.1h-3.8v4.8h4.7v1.1h-5.9V433.1z
			 M23.2,429.4h-3.3l-0.9,4l-1.2-0.3l3-11.9h1.4l3,11.9l-1.2,0.3L23.2,429.4z M22.9,428.3l-1.3-5.6l0,0l-1.3,5.6H22.9z M33.7,422.2
			v4.5h1.8c1,0,1.7-0.8,1.7-2.4s-0.8-2.1-2-2.1H33.7z M32.5,433.1v-12h3.2c1.2,0,2.7,1,2.7,3.2c0,1.5-0.6,2.9-2.1,3.4l2.5,5.2
			l-1.1,0.5l-2.7-5.6h-1.4v5.4h-1.1V433.1z M47.9,433.1v-11h-2.6v-1h6.4v1.1h-2.5v11h-1.3V433.1z M88,432h1.6c1.1,0,1.8-0.8,1.8-2.5
			c0-1.8-0.9-2.4-2.1-2.4H88V432z M88,426h1.1c1.2,0,1.8-0.6,1.8-1.9c0-1.5-0.7-1.9-2.2-1.9H88C88,422.2,88,426,88,426z M89.7,433.1
			h-3.9V432h1v-9.9h-1v-1h3.7c1.3,0,2.7,1.1,2.7,3c0,1-0.4,1.8-1.3,2.3c1.4,0.6,1.8,1.6,1.8,3.1C92.7,432,91.4,433.1,89.7,433.1z
			 M102.5,420.9c3.4,0,3.3,4.6,3.3,6.2c0,1.5,0.1,6.2-3.3,6.2c-3.4,0-3.3-4.6-3.3-6.2C99.2,425.1,99.3,420.9,102.5,420.9z
			 M102.5,422.1c-2.1,0-2.1,3.3-2.1,5c0,3.2,0.4,5.1,2.1,5.1c2.1,0,2.1-3,2.1-5.1C104.6,424.8,104.7,422.1,102.5,422.1z M116,420.9
			c3.4,0,3.3,4.6,3.3,6.2c0,1.5,0.1,6.2-3.3,6.2c-3.4,0-3.3-4.6-3.3-6.2C112.7,425.1,112.8,420.9,116,420.9z M116,422.1
			c-2.1,0-2.1,3.3-2.1,5c0,3.2,0.4,5.1,2.1,5.1c2.1,0,2.1-3,2.1-5.1C118.1,424.8,118.2,422.1,116,422.1z M128.3,421.1v5h0.3l3.4-5.2
			l1,0.6l-3.3,5.1l4,6.2l-1,0.6l-3.9-6.2h-0.4v6h-1.2v-12h1.1V421.1z M145.9,423.6l-1.2,0.2c-0.2-0.9-0.6-1.8-1.7-1.8
			c-1.1,0-1.6,0.9-1.6,1.9s0.2,1.3,2.1,2.4c1.5,0.9,2.5,1.6,2.5,3.5s-1,3.4-3,3.4c-2.1,0-2.9-1.4-3.1-3.3l1.2-0.2
			c0.2,1.3,0.5,2.3,1.9,2.3c1,0,1.8-0.7,1.8-2.1c0-1.6-1-2.1-2.3-2.9c-1.4-0.8-2.3-1.4-2.3-3.2c0-1.6,1.1-3.1,2.8-3.1
			C144.8,420.9,145.6,422.1,145.9,423.6z"/>
		<path id="Fill-1_1_" class="st1" d="M65.7,426.3c-0.2-0.4-0.3-0.7-0.3-1.1s0.1-0.7,0.3-1c0.2-0.3,0.5-0.6,0.8-0.8
			c0.3-0.2,0.7-0.3,1.1-0.3s0.8,0.1,1,0.3c0.3,0.2,0.4,0.5,0.4,0.8c0,0.2-0.1,0.5-0.2,0.7s-0.3,0.3-0.4,0.3s-0.1,0-0.1-0.1
			c0,0,0-0.1,0.1-0.2c0.1-0.2,0.1-0.3,0.1-0.5s-0.1-0.4-0.3-0.6c-0.2-0.1-0.4-0.2-0.7-0.2c-0.4,0-0.9,0.2-1.2,0.5
			c-0.4,0.4-0.6,0.8-0.6,1.2c0,0.2,0,0.4,0.1,0.5s0.1,0.2,0.2,0.3c0,0,0.1,0.1,0.2,0.1c0.5,0,0.8,0.2,0.8,0.5c0,0.1,0,0.2-0.1,0.2
			c-0.1,0.1-0.1,0.1-0.3,0.1c-0.1,0-0.3-0.1-0.5-0.2c-0.2-0.2-0.4-0.3-0.6-0.3c-0.3,0-0.5,0.1-0.7,0.4c-0.2,0.2-0.3,0.5-0.3,0.9
			c0,0.7,0.3,1.3,1,1.9s1.5,0.9,2.5,0.9c0.9,0,1.7-0.2,2.4-0.7c0.7-0.5,1-1,1-1.6c0-0.4-0.2-0.8-0.5-1.1c-0.3-0.3-0.8-0.5-1.3-0.5
			c-0.4,0-0.8,0.1-1.2,0.4c-0.4,0.2-0.5,0.5-0.5,0.9c0,0.2,0.1,0.4,0.2,0.5s0.3,0.2,0.4,0.2c0.2,0,0.2-0.1,0.2-0.2v-0.1
			c0-0.1,0-0.1,0-0.1c0-0.2,0-0.3,0.1-0.4s0.2-0.2,0.4-0.2c0.1,0,0.3,0,0.4,0.1s0.2,0.2,0.2,0.4c0,0.2-0.1,0.5-0.3,0.6
			c-0.2,0.2-0.4,0.2-0.7,0.2c-0.3,0-0.6-0.1-0.8-0.3c-0.2-0.2-0.3-0.5-0.3-0.8c0-0.5,0.2-0.9,0.6-1.3s1.2-0.6,2.2-0.6
			s1.7-0.1,2.1-0.4s0.7-0.7,0.7-1.2c0-0.3-0.1-0.6-0.3-0.8c-0.2-0.2-0.4-0.3-0.7-0.3c-0.1,0-0.3,0-0.3,0.1c-0.1,0-0.1,0.1-0.1,0.2
			s0,0.1,0.1,0.2s0.1,0.3,0.1,0.4s-0.1,0.3-0.2,0.4s-0.3,0.2-0.4,0.2c-0.2,0-0.3-0.1-0.5-0.2c-0.1-0.1-0.2-0.3-0.2-0.4
			c0-0.3,0.1-0.5,0.4-0.7s0.6-0.3,1-0.3s0.8,0.2,1.1,0.5c0.3,0.3,0.4,0.7,0.4,1.1s-0.1,0.8-0.4,1.1c-0.2,0.3-0.5,0.6-0.9,0.7
			s-0.9,0.2-1.5,0.2c0.6,0.4,1,1,1,1.7c0,0.5-0.2,1-0.6,1.5s-0.9,0.8-1.4,1.1c-0.6,0.2-1.2,0.4-2,0.4c-0.6,0-1.2-0.1-1.6-0.2
			s-0.8-0.3-1.1-0.6c-0.4-0.3-0.6-0.6-0.9-1c-0.2-0.4-0.3-0.8-0.3-1.2c0-0.5,0.2-1,0.5-1.4C64.6,426.6,65.1,426.4,65.7,426.3"/>
	</g>
</g>
</svg>
