<svg xmlns="http://www.w3.org/2000/svg" width="30" height="30" viewBox="0 0 30 30">
    <path fill="#fff" fill-rule="evenodd" d="M10.583 6.057C11.596 6.011 11.92 6 14.5 6s2.904.01 3.917.057c1.011.046 1.702.207 2.306.442a4.657 4.657 0 0 1 1.682 1.096 4.657 4.657 0 0 1 1.096 1.682c.235.604.396 1.295.442 2.306.046 1.013.057 1.337.057 3.917s-.01 2.904-.057 3.917c-.046 1.011-.207 1.702-.442 2.306a4.657 4.657 0 0 1-1.096 1.683 4.657 4.657 0 0 1-1.682 1.095c-.604.235-1.295.396-2.306.442-1.013.046-1.337.057-3.917.057s-2.904-.01-3.917-.057c-1.011-.046-1.702-.207-2.306-.442a4.657 4.657 0 0 1-1.683-1.095A4.657 4.657 0 0 1 5.5 21.723c-.235-.604-.396-1.295-.442-2.306C5.011 18.404 5 18.08 5 15.5s.01-2.904.057-3.917c.046-1.011.207-1.702.442-2.306a4.657 4.657 0 0 1 1.095-1.682 4.657 4.657 0 0 1 1.683-1.096c.604-.235 1.295-.396 2.306-.442zM14.5 10.75a4.75 4.75 0 1 0 0 9.5 4.75 4.75 0 0 0 0-9.5zm-2.85 4.75a2.85 2.85 0 1 1 5.7 0 2.85 2.85 0 0 1-5.7 0zm8.55-4.75a.95.95 0 1 0 0-1.9.95.95 0 0 0 0 1.9z"/>
</svg>
