<svg xmlns="http://www.w3.org/2000/svg" width="30" height="30" viewBox="0 0 30 30">
    <path fill="#be1823" fill-rule="evenodd" d="M26.45 8.948c.166-.546 0-.948-.795-.948H23.03c-.668 0-.976.347-1.143.73 0 0-1.335 3.196-3.226 5.272-.612.602-.89.793-1.224.793-.167 0-.409-.191-.409-.738v-5.11c0-.655-.193-.947-.75-.947h-4.126c-.417 0-.668.304-.668.593 0 .621.946.765 1.043 2.513v3.798c0 .833-.153.984-.487.984-.89 0-3.055-3.211-4.339-6.885C7.449 8.288 7.197 8 6.526 8H3.9c-.75 0-.9.347-.9.73 0 .682.89 4.07 4.145 8.551C9.315 20.341 12.37 22 15.153 22c1.669 0 1.875-.368 1.875-1.003v-2.313c0-.737.158-.884.687-.884.39 0 1.057.192 2.615 1.667C22.11 21.216 22.403 22 23.405 22h2.625c.75 0 1.126-.368.91-1.096-.237-.724-1.088-1.775-2.215-3.022-.612-.71-1.53-1.475-1.808-1.858-.39-.491-.279-.71 0-1.147 0 0 3.199-4.426 3.532-5.93"/>
</svg>
