<svg 
   xmlns:dc="http://purl.org/dc/elements/1.1/" 
   xmlns:cc="http://creativecommons.org/ns#" 
   xmlns:rdf="http://www.w3.org/1999/02/22-rdf-syntax-ns#" 
   xmlns:svg="http://www.w3.org/2000/svg" 
   xmlns="http://www.w3.org/2000/svg" 
   xmlns:sodipodi="http://sodipodi.sourceforge.net/DTD/sodipodi-0.dtd" 
   xmlns:inkscape="http://www.inkscape.org/namespaces/inkscape" 
 
   viewBox="0 0 79.401459 7.7258334" 
   version="1.1" 
   id="svg8" 
   inkscape:version="0.92.2 (5c3e80d, 2017-08-06)" 
   sodipodi:docname="ag.svg"> 
  <defs 
     id="defs2" /> 
  <sodipodi:namedview 
     id="base" 
     pagecolor="#ffffff" 
     bordercolor="#666666" 
     borderopacity="1.0" 
     inkscape:pageopacity="0.0" 
     inkscape:pageshadow="2" 
     inkscape:zoom="0.98994949" 
     inkscape:cx="94.271993" 
     inkscape:cy="-182.03904" 
     inkscape:document-units="mm" 
     inkscape:current-layer="layer1" 
     showgrid="false" 
     inkscape:window-width="1920" 
     inkscape:window-height="1001" 
     inkscape:window-x="-9" 
     inkscape:window-y="-9" 
     inkscape:window-maximized="1" /> 
  <g 
     inkscape:label="Layer 1" 
     inkscape:groupmode="layer" 
     id="layer1" 
     transform="translate(-15.035895,-35.748526)"> 
    <g 
       id="g68" 
       transform="matrix(0.26458333,0,0,0.26458333,55.808186,-57.384806)"> 
      <g 
         transform="translate(-371,-19)" 
         id="ШАПКА"> 
        <g 
           id="Agey-Tomesh-_x2B_-WAM-лого"> 
          <g 
             id="g30" 
             transform="translate(371,19)"> 
            <g 
               transform="translate(1)" 
               id="Agey-Tomesh-LOGO-Black-Only"> 
              <path 
                 d="m -137.9,371.1 h -5.2 c 0.9,-2.8 1.5,-4.8 1.5,-4.8 0.5,-1.7 0.7,-2.4 1.2,-4.3 0.4,1.8 0.5,2.3 1.1,4.2 -0.1,0.1 0.9,3.3 1.4,4.9 z m 1.6,-18 h -8.5 l -10.3,28 h 8.6 l 1.4,-4 h 9 l 1.4,4 h 8.6 z" 
                 class="st0" 
                 id="Fill-1" 
                 inkscape:connector-curvature="0" 
                 style="fill:#17181a" /> 
              <path 
                 d="m -100,380.5 h -5.4 l -0.3,-2.8 c -2.1,2.5 -4.7,3.5 -8,3.5 -7.9,0 -13.2,-5.9 -13.2,-14.5 0,-8.5 5.9,-14.5 14.2,-14.5 6.2,0 11.6,4.1 12.4,10.4 h -8.2 c -0.5,-2.1 -2,-3.2 -4.3,-3.2 -4.5,0 -5.4,4.2 -5.4,7.8 0,4.8 2,7.4 5.9,7.4 2.5,0 4.2,-1.2 4.8,-3.2 h -3.7 v -6 h 11.2 v 15.1" 
                 class="st0" 
                 id="Fill-2" 
                 inkscape:connector-curvature="0" 
                 style="fill:#17181a" /> 
              <polyline 
                 points="-71.4,359.9 -85.8,359.9 -85.8,363.4 -72.7,363.4 -72.7,369.9 -85.8,369.9 -85.8,374       -71,374 -71,381.1 -94,381.1 -94,353.1 -71.4,353.1 -71.4,359.9     " 
                 class="st0" 
                 id="Fill-3" 
                 style="fill:#17181a" /> 
              <path 
                 d="m -51.9,371 v 10.1 h -8.3 V 370.8 L -70,353.1 h 9.4 l 2.1,4.4 c 0.9,2 1.9,4.1 2.6,6.2 0.9,-2.3 1.9,-4.5 2.9,-6.8 l 1.8,-3.9 h 9.2 l -9.9,18" 
                 class="st0" 
                 id="Fill-4" 
                 inkscape:connector-curvature="0" 
                 style="fill:#17181a" /> 
              <polyline 
                 points="-6,360.3 -13.8,360.3 -13.8,381.1 -22.3,381.1 -22.3,360.3 -30,360.3 -30,353.1       -6,353.1 -6,360.3     " 
                 class="st0" 
                 id="Fill-5" 
                 style="fill:#17181a" /> 
              <path 
                 d="m 8.1,358.9 c 3.4,0 5.3,2.8 5.3,7.4 0,5.2 -1.9,8 -5.3,8 -3.5,0 -5.5,-2.8 -5.5,-7.8 0,-4.7 2.1,-7.6 5.5,-7.6 z m 0.1,-6.8 c -8.6,0 -14.2,5.7 -14.2,14.5 0,8.7 5.7,14.5 14.1,14.5 8.3,0 13.9,-5.8 13.9,-14.5 0,-8.6 -5.5,-14.5 -13.8,-14.5 z" 
                 class="st0" 
                 id="Fill-6" 
                 inkscape:connector-curvature="0" 
                 style="fill:#17181a" /> 
              <path 
                 d="m 59,381.1 h -8.2 v -4.2 c 0,-5.3 0.1,-10.6 0.3,-15.9 l -5.3,20.1 H 39.3 L 33.9,361 c 0.3,6.6 0.3,8.3 0.3,14.7 v 5.4 H 26 v -28 h 12.5 l 1.8,7.3 c 0.9,3.5 1.6,7 2.2,10.6 0.6,-3.7 1.5,-7.2 2.4,-10.8 l 1.8,-7.1 H 59 v 28" 
                 class="st0" 
                 id="Fill-7" 
                 inkscape:connector-curvature="0" 
                 style="fill:#17181a" /> 
              <polyline 
                 points="87.6,359.9 73.2,359.9 73.2,363.4 86.3,363.4 86.3,369.9 73.2,369.9 73.2,374 88,374       88,381.1 65,381.1 65,353.1 87.6,353.1 87.6,359.9     " 
                 class="st0" 
                 id="Fill-8" 
                 style="fill:#17181a" /> 
              <path 
                 d="m 106.8,361.1 c 0,-1.7 -1.4,-2.7 -3.6,-2.7 -1.8,0 -2.8,0.6 -2.8,1.7 0,1.7 4.8,2.4 6,2.7 4.7,1.2 9.7,3 9.7,8.8 0,5.8 -4.8,9.4 -12.3,9.4 -7.8,0 -12.7,-3.8 -12.7,-10 h 8.6 c 0.2,2.7 1.9,3.6 4.4,3.6 2.2,0 3.5,-0.9 3.5,-2.3 0,-0.5 -0.2,-0.8 -0.6,-1.1 -1.1,-0.9 -6,-2.1 -7.9,-2.8 -4,-1.4 -6.9,-2.9 -6.9,-7.7 0,-5.2 4.6,-8.7 11.4,-8.7 7.2,0 11.3,3.3 11.4,9 h -8.2" 
                 class="st0" 
                 id="Fill-9" 
                 inkscape:connector-curvature="0" 
                 style="fill:#17181a" /> 
              <polyline 
                 points="145,381.1 136.5,381.1 136.5,370 128.5,370 128.5,381.1 120,381.1 120,353.1       128.5,353.1 128.5,362.5 136.5,362.5 136.5,353.1 145,353.1 145,381.1     " 
                 class="st0" 
                 id="Fill-10" 
                 style="fill:#17181a" /> 
            </g> 
          </g> 
        </g> 
      </g> 
    </g> 
  </g> 
</svg>