<svg viewBox="0 0 224 16" version="1.1" xmlns="http://www.w3.org/2000/svg" xmlns:xlink="http://www.w3.org/1999/xlink">
    <g stroke="none" stroke-width="1" fill="none" fill-rule="evenodd" transform="translate(-922.000000, -88.000000)">
        <g id="Group" transform="translate(922.000000, 88.000000)">
            <path d="M0.418461538,15.3846154 L0.418461538,0.608 L1.90276923,0.608 L1.90276923,6.81107692 L6.46646154,6.81107692 L6.46646154,0.608 L7.95076923,0.608 L7.95076923,15.3846154 L6.46646154,15.3846154 L6.46646154,8.14030769 L1.90276923,8.14030769 L1.90276923,15.3846154 L0.418461538,15.3846154 Z M24.3298462,3.75384615 L22.8898462,3.97538462 C22.6461539,2.88984615 22.1144616,1.80430769 20.8516924,1.80430769 C19.4560001,1.80430769 18.9021539,2.93415385 18.9021539,4.17476923 C18.9021539,5.37107692 19.1458462,5.74769231 21.4720001,7.14338462 C23.2886155,8.22892308 24.5292309,9.13723077 24.5292309,11.4190769 C24.5292309,13.7452308 23.2886155,15.584 20.8073847,15.584 C18.1932309,15.584 17.2406155,13.856 17.019077,11.5076923 L18.5033847,11.3083077 C18.7027693,12.9476923 19.0572309,14.1883077 20.8516924,14.1883077 C22.1366155,14.1883077 23.0449232,13.3243077 23.0449232,11.552 C23.0449232,9.60246154 21.7821539,8.93784615 20.2535386,8.05169231 C18.5476924,7.05476923 17.4178462,6.34584615 17.4178462,4.17476923 C17.4178462,2.18092308 18.747077,0.408615385 20.8516924,0.408615385 C22.9341539,0.408615385 23.9532309,1.89292308 24.3298462,3.75384615 Z M34.1735386,15.3846154 L34.1735386,0.608 L41.3735386,0.608 L41.3735386,1.93723077 L35.6578463,1.93723077 L35.6578463,6.81107692 L40.3766156,6.81107692 L40.3766156,8.14030769 L35.6578463,8.14030769 L35.6578463,14.0553846 L41.3735386,14.0553846 L41.3735386,15.3846154 L34.1735386,15.3846154 Z M72.5144619,10.8209231 L68.4824619,10.8209231 L67.3304619,15.6726154 L65.8683081,15.2738462 L69.6123081,0.608 L71.3846158,0.608 L75.1286158,15.2738462 L73.6664619,15.6726154 L72.5144619,10.8209231 Z M72.1600004,9.49169231 L70.5206158,2.57969231 L70.4763081,2.57969231 L68.8369235,9.49169231 L72.1600004,9.49169231 Z M85.5040005,1.93723077 L85.5040005,7.47569231 L87.6750774,7.47569231 C88.9600005,7.47569231 89.7575389,6.52307692 89.7575389,4.52923077 C89.7575389,2.60184615 88.8270774,1.93723077 87.3206159,1.93723077 L85.5040005,1.93723077 Z M84.0196928,15.3846154 L84.0196928,0.608 L88.0073851,0.608 C89.4695389,0.608 91.3083082,1.87076923 91.3083082,4.52923077 C91.3083082,6.34584615 90.5772312,8.07384615 88.7606159,8.69415385 L91.8178466,15.0301538 L90.4886159,15.6726154 L87.1655389,8.80492308 L85.5040005,8.80492308 L85.5040005,15.3846154 L84.0196928,15.3846154 Z M102.946462,15.3846154 L102.946462,1.93723077 L99.7563083,1.93723077 L99.7563083,0.608 L107.554462,0.608 L107.554462,1.93723077 L104.43077,1.93723077 L104.43077,15.3846154 L102.946462,15.3846154 Z M152.128001,14.0553846 L154.144001,14.0553846 C155.473232,14.0553846 156.381539,13.0806154 156.381539,10.9316923 C156.381539,8.73846154 155.296001,8.00738462 153.745232,8.00738462 L152.128001,8.00738462 L152.128001,14.0553846 Z M152.128001,6.67815385 L153.457232,6.67815385 C154.985847,6.67815385 155.69477,5.88061538 155.69477,4.32984615 C155.69477,2.51323077 154.786462,1.93723077 152.992001,1.93723077 L152.128001,1.93723077 L152.128001,6.67815385 Z M154.210462,15.3846154 L149.447385,15.3846154 L149.447385,14.0553846 L150.643693,14.0553846 L150.643693,1.93723077 L149.447385,1.93723077 L149.447385,0.608 L153.96677,0.608 C155.584001,0.608 157.245539,1.95938462 157.245539,4.32984615 C157.245539,5.54830769 156.758155,6.58953846 155.672616,7.18769231 C157.334155,7.91876923 157.932309,9.18153846 157.932309,10.9538462 C157.932309,14.0332308 156.248616,15.3846154 154.210462,15.3846154 Z M169.969232,0.408615385 C174.134155,0.408615385 174.067693,6.03569231 174.067693,7.98523077 C174.067693,9.84615385 174.134155,15.584 169.969232,15.584 C165.760001,15.584 165.87077,9.89046154 165.87077,7.98523077 C165.87077,5.54830769 166.025847,0.408615385 169.969232,0.408615385 Z M169.969232,1.80430769 C167.355078,1.80430769 167.421539,5.81415385 167.421539,7.98523077 C167.421539,11.9729231 167.88677,14.1883077 169.969232,14.1883077 C172.539078,14.1883077 172.516924,10.5550769 172.516924,7.98523077 C172.516924,5.19384615 172.583386,1.80430769 169.969232,1.80430769 Z M186.547693,0.408615385 C190.712616,0.408615385 190.646155,6.03569231 190.646155,7.98523077 C190.646155,9.84615385 190.712616,15.584 186.547693,15.584 C182.338463,15.584 182.449232,9.89046154 182.449232,7.98523077 C182.449232,5.54830769 182.604309,0.408615385 186.547693,0.408615385 Z M186.547693,1.80430769 C183.933539,1.80430769 184.000001,5.81415385 184.000001,7.98523077 C184.000001,11.9729231 184.465232,14.1883077 186.547693,14.1883077 C189.117539,14.1883077 189.095386,10.5550769 189.095386,7.98523077 C189.095386,5.19384615 189.161847,1.80430769 186.547693,1.80430769 Z M201.553232,0.608 L201.553232,6.70030769 L201.952001,6.70030769 L206.072617,0.32 L207.268924,1.07323077 L203.21477,7.32061538 L208.066463,14.9193846 L206.825847,15.6726154 L202.06277,8.02953846 L201.553232,8.02953846 L201.553232,15.3846154 L200.068924,15.3846154 L200.068924,0.608 L201.553232,0.608 Z M223.271386,3.75384615 L221.831386,3.97538462 C221.587694,2.88984615 221.056001,1.80430769 219.793232,1.80430769 C218.39754,1.80430769 217.843694,2.93415385 217.843694,4.17476923 C217.843694,5.37107692 218.087386,5.74769231 220.41354,7.14338462 C222.230155,8.22892308 223.47077,9.13723077 223.47077,11.4190769 C223.47077,13.7452308 222.230155,15.584 219.748924,15.584 C217.13477,15.584 216.182155,13.856 215.960617,11.5076923 L217.444924,11.3083077 C217.644309,12.9476923 217.99877,14.1883077 219.793232,14.1883077 C221.078155,14.1883077 221.986463,13.3243077 221.986463,11.552 C221.986463,9.60246154 220.723694,8.93784615 219.195078,8.05169231 C217.489232,7.05476923 216.359386,6.34584615 216.359386,4.17476923 C216.359386,2.18092308 217.688617,0.408615385 219.793232,0.408615385 C221.875694,0.408615385 222.89477,1.89292308 223.271386,3.75384615 Z" id="HSE-ART-BOOKS" fill="#17181A"></path>
            <path d="M124.74918,6.97512241 C124.529767,6.50739031 124.420332,6.07086196 124.420332,5.66586124 C124.420332,5.20795455 124.556498,4.78265521 124.829592,4.38963933 C125.102141,3.99651547 125.449537,3.67961942 125.870798,3.43841132 C126.292387,3.19752713 126.729577,3.07692308 127.182807,3.07692308 C127.689281,3.07692308 128.112069,3.21566632 128.450737,3.4928289 C128.789295,3.77020742 128.95852,4.10157164 128.95852,4.4871375 C128.95852,4.77650084 128.876799,5.04405397 128.713684,5.29001281 C128.55057,5.53597165 128.378726,5.6588431 128.198591,5.6588431 C128.110978,5.6588431 128.067008,5.61295526 128.067008,5.52139551 C128.067008,5.48781641 128.091339,5.41277629 128.140001,5.29713892 C128.217903,5.10926869 128.256854,4.9185912 128.256854,4.72597023 C128.256854,4.43660688 128.13771,4.20144518 127.898984,4.02070106 C127.660258,3.83984897 127.372653,3.74947691 127.036713,3.74947691 C126.495871,3.74947691 125.990161,3.97006248 125.520129,4.41134158 C125.049988,4.85240474 124.814972,5.3576029 124.814972,5.92639623 C124.814972,6.18196452 124.848904,6.3975834 124.917096,6.57368475 C124.985287,6.74967813 125.047478,6.86423578 125.103668,6.91714177 C125.15964,6.97037167 125.238852,6.99682466 125.341085,6.99682466 C126.01351,6.99682466 126.349559,7.18944563 126.349559,7.57522744 C126.349559,7.67175386 126.314317,7.76342158 126.243725,7.85012261 C126.172915,7.93671567 126.069481,7.98022815 125.933098,7.98022815 C125.781876,7.98022815 125.589521,7.88154229 125.355814,7.68363072 C125.107269,7.47168287 124.863633,7.36554698 124.625017,7.36554698 C124.31799,7.36554698 124.026784,7.51627505 123.751508,7.81751525 C123.476341,8.11907936 123.338648,8.47700455 123.338648,8.89150674 C123.338648,9.69675742 123.743107,10.457092 124.551697,11.1731583 C125.360615,11.8892246 126.366579,12.2471498 127.570027,12.2471498 C128.710084,12.2471498 129.685717,11.9665321 130.497035,11.404757 C131.308243,10.8429818 131.713684,10.1716156 131.713684,9.39055054 C131.713684,8.86991246 131.51391,8.41783622 131.11447,8.03464573 C130.714921,7.65134727 130.174078,7.4594821 129.492161,7.4594821 C128.941499,7.4594821 128.450737,7.60902248 128.019547,7.90799528 C127.588357,8.20696808 127.372653,8.58054912 127.372653,9.02884636 C127.372653,9.29888282 127.450773,9.52076404 127.606578,9.69438205 C127.762382,9.86778412 127.923206,9.95459312 128.088939,9.95459312 C128.278894,9.95459312 128.373926,9.85342392 128.373926,9.65097755 L128.366616,9.56416855 C128.361706,9.50132919 128.359415,9.45803266 128.359415,9.43384707 C128.359415,9.22189922 128.417678,9.04698555 128.534858,8.90964594 C128.651821,8.77230632 128.800206,8.70342057 128.98045,8.70342057 C129.150875,8.70342057 129.299588,8.76258889 129.42637,8.88049366 C129.552934,8.99883031 129.616216,9.16391858 129.616216,9.3759744 C129.616216,9.67980591 129.510273,9.93289087 129.298387,10.1354452 C129.086502,10.3378916 128.814935,10.4392767 128.483578,10.4392767 C128.088939,10.4392767 127.749071,10.3007494 127.463975,10.0232629 C127.179097,9.74610035 127.036713,9.40512668 127.036713,9.00012597 C127.036713,8.40693111 127.28755,7.86718209 127.789332,7.38012312 C128.290895,6.89306415 129.202155,6.64948067 130.522566,6.64948067 C131.706483,6.64948067 132.566354,6.48806343 133.102177,6.16512099 C133.638219,5.84692928 133.906294,5.36224567 133.906294,4.71139409 C133.906294,4.32572026 133.786713,4.00871624 133.548097,3.76048999 C133.309262,3.51215578 133.007254,3.3878807 132.641856,3.3878807 C132.461611,3.3878807 132.326319,3.41314601 132.236197,3.46389257 C132.146074,3.51453115 132.101013,3.59302636 132.101013,3.69883833 C132.101013,3.76632045 132.144874,3.86273891 132.232596,3.98820167 C132.344649,4.14735151 132.400839,4.30153467 132.400839,4.45096708 C132.400839,4.62955177 132.331338,4.78632624 132.192336,4.92107454 C132.053443,5.05636271 131.881927,5.12362889 131.677243,5.12362889 C131.433607,5.12362889 131.248453,5.04653731 131.121671,4.89213821 C130.994889,4.73784708 130.931825,4.55699499 130.931825,4.34979788 C130.931825,4.02199672 131.09374,3.72777466 131.417678,3.46756359 C131.741616,3.20713658 132.154694,3.07692308 132.656585,3.07692308 C133.172769,3.07692308 133.602759,3.26382157 133.946445,3.6374026 C134.289913,4.01109161 134.461538,4.46068451 134.461538,4.9861813 C134.461538,5.48274175 134.314244,5.93611365 134.019547,6.34597308 C133.72474,6.75572453 133.351923,7.0449799 132.901421,7.21363123 C132.450701,7.38239052 131.818536,7.48118435 131.004817,7.51012068 C131.784276,8.05505233 132.174333,8.75416712 132.174333,9.60757305 C132.174333,10.2485992 131.935389,10.8683551 131.457938,11.4660847 C130.980487,12.0640303 130.402112,12.5075768 129.722376,12.7967242 C129.04275,13.0860876 128.213102,13.2307692 127.23376,13.2307692 C126.439681,13.2307692 125.796605,13.1452559 125.304425,12.9740132 C124.812244,12.8029866 124.343521,12.5534647 123.89782,12.2254475 C123.451901,11.8977544 123.101232,11.4963167 122.845376,11.0214585 C122.58963,10.5466003 122.461538,10.0365434 122.461538,9.49193568 C122.461538,8.82639999 122.654221,8.26710815 123.039041,7.81395219 C123.42386,7.36079624 123.993725,7.08115032 124.74918,6.97512241" id="Fill-1" fill="#BE1823"></path>
        </g>
    </g>
</svg>