<?xml version="1.0" encoding="UTF-8"?>
<svg width="370px" height="89px" viewBox="0 0 370 89" version="1.1" xmlns="http://www.w3.org/2000/svg" xmlns:xlink="http://www.w3.org/1999/xlink">
    <!-- Generator: Sketch 48.2 (47327) - http://www.bohemiancoding.com/sketch -->
    <title>Agey Tomesh + WAM лого</title>
    <desc>Created with Sketch.</desc>
    <defs></defs>
    <g id="ШАПКА" stroke="none" stroke-width="1" fill="none" fill-rule="evenodd" transform="translate(-371.000000, -19.000000)">
        <g id="Agey-Tomesh-+-WAM-лого">
            <g transform="translate(371.000000, 19.000000)">
                <g id="Agey-Tomesh-LOGO-Black-Only" stroke-width="1" fill-rule="evenodd" transform="translate(1.000000, 0.000000)" fill="#17181A">
                    <path d="M17.1026742,19.0105777 L11.8586935,19.0105777 C12.797316,16.1796662 13.383955,14.2530937 13.383955,14.2530937 C13.9333925,12.5234917 14.0893527,11.8937612 14.5586639,9.9671887 C14.9492797,11.8146855 15.0279751,12.2862644 15.6146142,14.2142747 C15.6146142,14.2142747 16.5932998,17.3988703 17.1026742,19.0105777 Z M18.7466943,1 L10.2933689,1 L0,29 L8.64934873,29 L10.0186501,25.0289602 L18.9813499,25.0289602 L20.3506513,29 L29,29 L18.7466943,1 Z" id="Fill-1"></path>
                    <path d="M55,28.3766807 L49.5688588,28.3766807 L49.2960161,25.5347434 C47.1861277,28.0280204 44.6448336,29 41.246442,29 C33.3925718,29 28,23.1225832 28,14.5199234 C28,5.9941113 33.8611185,0 42.1835353,0 C48.3974922,0 53.8286334,4.08715281 54.5700228,10.3545 L46.3647426,10.3545 C45.8176287,8.25257631 44.3334215,7.12405535 42.0278292,7.12405535 C37.4952119,7.12405535 36.596688,11.3279026 36.596688,14.9468545 C36.596688,19.7754441 38.6280091,22.3042988 42.4578065,22.3042988 C44.9591027,22.3042988 46.6775832,21.137354 47.2246971,19.0724311 L43.5520343,19.0724311 L43.5520343,13.1181667 L55,13.1181667 L55,28.3766807" id="Fill-2"></path>
                    <polyline id="Fill-3" points="83.6173908 7.80338896 69.2422156 7.80338896 69.2422156 11.3028498 82.2761562 11.3028498 82.2761562 17.7928113 69.2422156 17.7928113 69.2422156 21.8817458 84 21.8817458 84 29 61 29 61 1 83.6173908 1 83.6173908 7.80338896"></polyline>
                    <path d="M103.138356,18.8926829 L103.138356,29 L94.82347,29 L94.82347,18.6985879 L85,1 L94.3597253,1 L96.4098162,5.44405648 C97.3373056,7.48996149 98.304383,9.49560976 99,11.6191528 C99.8893153,9.29720154 100.895981,7.09602054 101.939406,4.8545828 L103.757625,1 L113,1 L103.138356,18.8926829" id="Fill-4"></path>
                    <polyline id="Fill-5" points="149 8.19732991 141.219944 8.19732991 141.219944 29 132.740238 29 132.740238 8.19732991 125 8.19732991 125 1 149 1 149 8.19732991"></polyline>
                    <path d="M163.07727,6.78651026 C166.451618,6.78651026 168.426604,9.53768328 168.426604,14.1513196 C168.426604,19.3857771 166.567877,22.1383675 163.11555,22.1383675 C159.624943,22.1383675 157.608841,19.3064027 157.608841,14.3837732 C157.608841,9.65391007 159.664641,6.78651026 163.07727,6.78651026 Z M163.193529,0 C154.622968,0 149,5.73905181 149,14.5 C149,23.2240958 154.661249,29 163.11555,29 C171.415312,29 177,23.185826 177,14.5396872 C177,5.85527859 171.453593,0 163.193529,0 Z" id="Fill-6"></path>
                    <path d="M214,29 L205.800452,29 L205.800452,24.7931707 C205.800452,19.4821566 205.920367,14.174018 206.117788,8.86587933 L200.758176,29 L194.238899,29 L188.839803,8.86587933 C189.119117,15.5111168 189.119117,17.2018999 189.158601,23.6113479 L189.199548,29 L181,29 L181,1 L193.51941,1 L195.35908,8.27496791 C196.239431,11.8146855 196.998405,15.3141463 197.558495,18.8926829 C198.199016,15.2365083 199.079367,11.6967908 199.958256,8.07799743 L201.718958,1 L214,1 L214,29" id="Fill-7"></path>
                    <polyline id="Fill-8" points="242.617391 7.80338896 228.240814 7.80338896 228.240814 11.3028498 241.276156 11.3028498 241.276156 17.7928113 228.240814 17.7928113 228.240814 21.8817458 243 21.8817458 243 29 220 29 220 1 242.617391 1 242.617391 7.80338896"></polyline>
                    <path d="M261.773312,9.01692663 C261.732945,7.33740097 260.392192,6.36136397 258.184995,6.36136397 C256.371374,6.36136397 255.344905,6.98637012 255.344905,8.07941741 C255.344905,9.79604389 260.155758,10.4595778 261.339369,10.7720809 C266.032005,11.9821385 271,13.7772475 271,19.554987 C271,25.3312995 266.228072,29 258.737155,29 C250.888703,29 246.07785,25.2142892 246,19.0070364 L254.635603,19.0070364 C254.791304,21.7011268 256.489591,22.6001083 259.012514,22.6001083 C261.180785,22.6001083 262.521539,21.7011268 262.521539,20.2955764 C262.521539,19.8275353 262.325471,19.4765045 261.969379,19.1625744 C260.826135,18.2264922 255.974915,17.0563893 254.044519,16.3914284 C250.022259,15.0272598 247.102878,13.4661713 247.102878,8.7029966 C247.102878,3.4732077 251.677297,0 258.460354,0 C265.636987,0 269.777464,3.27914186 269.856756,9.01692663 L261.773312,9.01692663" id="Fill-9"></path>
                    <polyline id="Fill-10" points="300 29 291.523111 29 291.523111 17.949525 283.516687 17.949525 283.516687 29 275 29 275 1 283.516687 1 283.516687 10.3985109 291.523111 10.3985109 291.523111 1 300 1 300 29"></polyline>
                </g>
                <path d="M39.2247191,61 L31.5561798,89 L23.1797753,89 L21.8820225,82.1573034 C21.1741573,78.3820225 20.4662921,74.6067416 20.0337079,70.7921348 C19.758427,74.6067416 19.011236,78.3033708 18.3426966,82.0786517 L17.1235955,89 L8.66853933,89 L1,61 L9.45505618,61 L10.8707865,67.3314607 C11.8539326,71.7752809 12.6011236,76.258427 12.9157303,80.7808989 C13.2696629,76.2977528 14.1348315,71.9325843 15,67.5280899 L16.2977528,61 L23.8876404,61 L25.0280899,66.5842697 C25.9719101,71.3033708 26.9157303,75.9438202 27.2696629,80.7808989 C27.6629213,75.8258427 28.6067416,70.9101124 29.6685393,66.0337079 L30.7696629,61 L39.2247191,61 Z M54.9953903,61 L65.298761,89 L56.6077498,89 L55.2313453,85.0280899 L46.2257273,85.0280899 L44.8493228,89 L36.1583116,89 L46.5010082,61 L54.9953903,61 Z M53.3437049,79.011236 C52.8324689,77.3988764 51.8493228,74.2134831 51.8493228,74.2134831 C51.2594352,72.2865169 51.1807835,71.8146067 50.7875251,69.9662921 C50.315615,71.8932584 50.1583116,72.5224719 49.6077498,74.252809 C49.6077498,74.252809 49.0178622,76.1797753 48.0740419,79.011236 L53.3437049,79.011236 Z M99,61 L99,89 L91.0484848,89 L91.0484848,84.7921348 C91.0484848,79.4831461 91.1648485,74.1741573 91.3587879,68.8651685 L86.1612121,89 L79.8387879,89 L74.6024242,68.8651685 C74.8739394,75.511236 74.8739394,77.2022472 74.9127273,83.6123596 L74.9515152,89 L67,89 L67,61 L79.1406061,61 L80.9248485,68.2752809 C81.7781818,71.8146067 82.5151515,75.3146067 83.0581818,78.8932584 C83.6787879,75.2359551 84.5321212,71.6966292 85.3854545,68.0786517 L87.0921212,61 L99,61 Z" id="WAM" fill="#17181A" fill-rule="evenodd"></path>
                <g id="—-red" transform="translate(0.000000, 45.000000)" fill="#fff" fill-rule="nonzero">
                    <polygon id="Line-Copy" points="0 1 0 0 370 0 370 1"></polygon>
                </g>
            </g>
        </g>
    </g>
</svg>