<?xml version="1.0" encoding="utf-8" ?>
<svg xmlns="http://www.w3.org/2000/svg" xmlns:xlink="http://www.w3.org/1999/xlink" width="150" height="287">
	<defs>
		<clipPath id="clip_0">
			<rect x="-76" y="-142" width="1300" height="674" clip-rule="evenodd"/>
		</clipPath>
	</defs>
	<g clip-path="url(#clip_0)">
		<path fill="rgb(190,24,35)" stroke="none" transform="translate(0 167.5)" d="M7.43484 12.6691C6.72174 11.149 6.36608 9.7303 6.36608 8.41405C6.36608 6.92585 6.80862 5.54363 7.69617 4.26633C8.58196 2.98868 9.71099 1.95876 11.0801 1.17484C12.4503 0.391963 13.8711 0 15.3441 0C16.9902 0 18.3642 0.450916 19.4649 1.35169C20.5652 2.25317 21.1152 3.33011 21.1152 4.5832C21.1152 5.52363 20.8496 6.39318 20.3195 7.19254C19.7894 7.99191 19.2309 8.39124 18.6454 8.39124C18.3607 8.39124 18.2178 8.2421 18.2178 7.94454C18.2178 7.8354 18.2969 7.59152 18.455 7.2157C18.7082 6.60512 18.8348 5.98542 18.8348 5.3594C18.8348 4.41897 18.4476 3.6547 17.6717 3.06728C16.8958 2.47951 15.9611 2.1858 14.8693 2.1858C13.1116 2.1858 11.468 2.9027 9.94042 4.33686C8.41246 5.77032 7.64866 7.41221 7.64866 9.26079C7.64866 10.0914 7.75894 10.7921 7.98056 11.3645C8.20218 11.9365 8.4043 12.3088 8.58692 12.4807C8.76883 12.6537 9.02627 12.7397 9.35853 12.7397C11.5439 12.7397 12.6361 13.3657 12.6361 14.6195C12.6361 14.9332 12.5215 15.2311 12.2921 15.5129C12.062 15.7943 11.7258 15.9357 11.2826 15.9357C10.7911 15.9357 10.1659 15.615 9.4064 14.9718C8.59862 14.283 7.80681 13.938 7.0313 13.938C6.03347 13.938 5.08705 14.4279 4.1924 15.4069C3.29811 16.387 2.85061 17.5503 2.85061 18.8974C2.85061 21.5145 4.1651 23.9855 6.79302 26.3128C9.422 28.64 12.6914 29.8032 16.6026 29.8032C20.3078 29.8032 23.4786 28.8912 26.1154 27.0655C28.7518 25.2397 30.0695 23.0578 30.0695 20.5193C30.0695 18.8272 29.4202 17.358 28.122 16.1126C26.8235 14.8669 25.0658 14.2433 22.8495 14.2433C21.0599 14.2433 19.4649 14.7293 18.0635 15.701C16.6622 16.6726 15.9611 17.8868 15.9611 19.3438C15.9611 20.2214 16.215 20.9425 16.7214 21.5067C17.2277 22.0703 17.7504 22.3524 18.2891 22.3524C18.9064 22.3524 19.2153 22.0236 19.2153 21.3657L19.1915 21.0835C19.1755 20.8793 19.1681 20.7386 19.1681 20.66C19.1681 19.9712 19.3575 19.4027 19.7383 18.9563C20.1184 18.51 20.6007 18.2861 21.1865 18.2861C21.7403 18.2861 22.2237 18.4784 22.6357 18.8616C23.047 19.2462 23.2527 19.7827 23.2527 20.4719C23.2527 21.4594 22.9084 22.2819 22.2198 22.9402C21.5311 23.5981 20.6485 23.9277 19.5716 23.9277C18.2891 23.9277 17.1845 23.4774 16.2579 22.5756C15.3321 21.6748 14.8693 20.5667 14.8693 19.2504C14.8693 17.3225 15.6845 15.5683 17.3153 13.9854C18.9454 12.4025 21.907 11.6108 26.1983 11.6108C30.0461 11.6108 32.8406 11.0862 34.5821 10.0366C36.3242 9.00252 37.1955 7.4273 37.1955 5.31203C37.1955 4.05859 36.8068 3.02833 36.0313 2.22159C35.2551 1.41451 34.2736 1.01061 33.086 1.01061C32.5002 1.01061 32.0605 1.09272 31.7676 1.25765C31.4747 1.42223 31.3283 1.67734 31.3283 2.02122C31.3283 2.24054 31.4708 2.5539 31.7559 2.96166C32.1201 3.47889 32.3027 3.97999 32.3027 4.46564C32.3027 5.04604 32.0768 5.55556 31.6251 5.99349C31.1737 6.43318 30.6163 6.65179 29.951 6.65179C29.1592 6.65179 28.5575 6.40125 28.1454 5.89945C27.7334 5.398 27.5284 4.81023 27.5284 4.13684C27.5284 3.07149 28.0547 2.11527 29.1075 1.26958C30.1602 0.423194 31.5028 0 33.1339 0C34.8115 0 36.209 0.60742 37.3259 1.82156C38.4422 3.03605 39 4.49722 39 6.20509C39 7.81891 38.5213 9.29237 37.5635 10.6244C36.6054 11.9561 35.3937 12.8962 33.9296 13.4443C32.4648 13.9928 30.4102 14.3138 27.7657 14.4079C30.2989 16.1789 31.5666 18.451 31.5666 21.2246C31.5666 23.3079 30.79 25.3222 29.2383 27.2648C27.6866 29.2081 25.8069 30.6496 23.5977 31.5894C21.3889 32.5298 18.6926 33 15.5097 33C12.929 33 10.839 32.7221 9.23938 32.1655C7.63979 31.6097 6.11644 30.7988 4.66792 29.7327C3.21868 28.6677 2.079 27.363 1.24747 25.8197C0.416297 24.2764 0 22.6188 0 20.8488C0 18.6858 0.626218 16.8681 1.87688 15.3953C3.12755 13.9226 4.97961 13.0137 7.43484 12.6691L7.43484 12.6691C6.72174 11.149 6.36608 9.7303 6.36608 8.41405C6.36608 6.92585 6.80862 5.54363 7.69617 4.26633C8.58196 2.98868 9.71099 1.95876 11.0801 1.17484C12.4503 0.391963 13.8711 0 15.3441 0C16.9902 0 18.3642 0.450916 19.4649 1.35169C20.5652 2.25317 21.1152 3.33011 21.1152 4.5832C21.1152 5.52363 20.8496 6.39318 20.3195 7.19254C19.7894 7.99191 19.2309 8.39124 18.6454 8.39124C18.3607 8.39124 18.2178 8.2421 18.2178 7.94454C18.2178 7.8354 18.2969 7.59152 18.455 7.2157C18.7082 6.60512 18.8348 5.98542 18.8348 5.3594C18.8348 4.41897 18.4476 3.6547 17.6717 3.06728C16.8958 2.47951 15.9611 2.1858 14.8693 2.1858C13.1116 2.1858 11.468 2.9027 9.94042 4.33686C8.41246 5.77032 7.64866 7.41221 7.64866 9.26079C7.64866 10.0914 7.75894 10.7921 7.98056 11.3645C8.20218 11.9365 8.4043 12.3088 8.58692 12.4807C8.76883 12.6537 9.02627 12.7397 9.35853 12.7397C11.5439 12.7397 12.6361 13.3657 12.6361 14.6195C12.6361 14.9332 12.5215 15.2311 12.2921 15.5129C12.062 15.7943 11.7258 15.9357 11.2826 15.9357C10.7911 15.9357 10.1659 15.615 9.4064 14.9718C8.59862 14.283 7.80681 13.938 7.0313 13.938C6.03347 13.938 5.08705 14.4279 4.1924 15.4069C3.29811 16.387 2.85061 17.5503 2.85061 18.8974C2.85061 21.5145 4.1651 23.9855 6.79302 26.3128C9.422 28.64 12.6914 29.8032 16.6026 29.8032C20.3078 29.8032 23.4786 28.8912 26.1154 27.0655C28.7518 25.2397 30.0695 23.0578 30.0695 20.5193C30.0695 18.8272 29.4202 17.358 28.122 16.1126C26.8235 14.8669 25.0658 14.2433 22.8495 14.2433C21.0599 14.2433 19.4649 14.7293 18.0635 15.701C16.6622 16.6726 15.9611 17.8868 15.9611 19.3438C15.9611 20.2214 16.215 20.9425 16.7214 21.5067C17.2277 22.0703 17.7504 22.3524 18.2891 22.3524C18.9064 22.3524 19.2153 22.0236 19.2153 21.3657L19.1915 21.0835C19.1755 20.8793 19.1681 20.7386 19.1681 20.66C19.1681 19.9712 19.3575 19.4027 19.7383 18.9563C20.1184 18.51 20.6007 18.2861 21.1865 18.2861C21.7403 18.2861 22.2237 18.4784 22.6357 18.8616C23.047 19.2462 23.2527 19.7827 23.2527 20.4719C23.2527 21.4594 22.9084 22.2819 22.2198 22.9402C21.5311 23.5981 20.6485 23.9277 19.5716 23.9277C18.2891 23.9277 17.1845 23.4774 16.2579 22.5756C15.3321 21.6748 14.8693 20.5667 14.8693 19.2504C14.8693 17.3225 15.6845 15.5683 17.3153 13.9854C18.9454 12.4025 21.907 11.6108 26.1983 11.6108C30.0461 11.6108 32.8406 11.0862 34.5821 10.0366C36.3242 9.00252 37.1955 7.4273 37.1955 5.31203C37.1955 4.05859 36.8068 3.02833 36.0313 2.22159C35.2551 1.41451 34.2736 1.01061 33.086 1.01061C32.5002 1.01061 32.0605 1.09272 31.7676 1.25765C31.4747 1.42223 31.3283 1.67734 31.3283 2.02122C31.3283 2.24054 31.4708 2.5539 31.7559 2.96166C32.1201 3.47889 32.3027 3.97999 32.3027 4.46564C32.3027 5.04604 32.0768 5.55556 31.6251 5.99349C31.1737 6.43318 30.6163 6.65179 29.951 6.65179C29.1592 6.65179 28.5575 6.40125 28.1454 5.89945C27.7334 5.398 27.5284 4.81023 27.5284 4.13684C27.5284 3.07149 28.0547 2.11527 29.1075 1.26958C30.1602 0.423194 31.5028 0 33.1339 0C34.8115 0 36.209 0.60742 37.3259 1.82156C38.4422 3.03605 39 4.49722 39 6.20509C39 7.81891 38.5213 9.29237 37.5635 10.6244C36.6054 11.9561 35.3937 12.8962 33.9296 13.4443C32.4648 13.9928 30.4102 14.3138 27.7657 14.4079C30.2989 16.1789 31.5666 18.451 31.5666 21.2246C31.5666 23.3079 30.79 25.3222 29.2383 27.2648C27.6866 29.2081 25.8069 30.6496 23.5977 31.5894C21.3889 32.5298 18.6926 33 15.5097 33C12.929 33 10.839 32.7221 9.23938 32.1655C7.63979 31.6097 6.11644 30.7988 4.66792 29.7327C3.21868 28.6677 2.079 27.363 1.24747 25.8197C0.416297 24.2764 0 22.6188 0 20.8488C0 18.6858 0.626218 16.8681 1.87688 15.3953C3.12755 13.9226 4.97961 13.0137 7.43484 12.6691"/>
	</g>
	<defs>
		<clipPath id="clip_1">
			<rect x="-76" y="-142" width="1300" height="674" clip-rule="evenodd"/>
		</clipPath>
	</defs>
	<g clip-path="url(#clip_1)">
		<path fill="rgb(29,29,27)" stroke="none" transform="translate(9 0.5)" d="M0 0L4.5 0L4.5 19L18.5 19L18.5 0L23 0L23 45.5L18.5 45.5L18.5 23L4.5 23L4.5 45.5L0 45.5L0 0L4.5 0L4.5 19L18.5 19L18.5 0L23 0L23 45.5L18.5 45.5L18.5 23L4.5 23L4.5 45.5L0 45.5L0 0Z"/>
	</g>
	<defs>
		<clipPath id="clip_2">
			<rect x="-76" y="-142" width="1300" height="674" clip-rule="evenodd"/>
		</clipPath>
	</defs>
	<g clip-path="url(#clip_2)">
		<path fill="rgb(29,29,27)" stroke="none" transform="translate(66 0)" d="M17.9791 11.0468C17.2331 7.68497 15.6039 4.32275 11.7369 4.32275C7.46282 4.32275 5.7673 7.82209 5.7673 11.6642C5.7673 15.3692 6.51266 16.5361 13.6372 20.8585C19.2008 24.2204 23 27.0334 23 34.1007C23 41.3047 19.2008 47 11.6017 47C3.59582 47 0.678631 41.6478 0 34.3749L4.54562 33.7579C5.15646 38.8348 6.2422 42.6772 11.7369 42.6772C15.6721 42.6772 18.4544 40.0013 18.4544 34.512C18.4544 28.4742 14.5874 26.4161 9.90582 23.6712C4.68156 20.5839 1.22132 18.3886 1.22132 11.6642C1.22132 5.48931 5.29205 0 11.7369 0C18.1151 0 21.2356 4.59734 22.3892 10.3605L17.9791 11.0468C17.2331 7.68497 15.6039 4.32275 11.7369 4.32275C7.46282 4.32275 5.7673 7.82209 5.7673 11.6642C5.7673 15.3692 6.51266 16.5361 13.6372 20.8585C19.2008 24.2204 23 27.0334 23 34.1007C23 41.3047 19.2008 47 11.6017 47C3.59582 47 0.678631 41.6478 0 34.3749L4.54562 33.7579C5.15646 38.8348 6.2422 42.6772 11.7369 42.6772C15.6721 42.6772 18.4544 40.0013 18.4544 34.512C18.4544 28.4742 14.5874 26.4161 9.90582 23.6712C4.68156 20.5839 1.22132 18.3886 1.22132 11.6642C1.22132 5.48931 5.29205 0 11.7369 0C18.1151 0 21.2356 4.59734 22.3892 10.3605L17.9791 11.0468Z"/>
	</g>
	<defs>
		<clipPath id="clip_3">
			<rect x="-76" y="-142" width="1300" height="674" clip-rule="evenodd"/>
		</clipPath>
	</defs>
	<g clip-path="url(#clip_3)">
		<path fill="rgb(29,29,27)" stroke="none" transform="translate(123 0.5)" d="M0 0L22 0L22 4L4.5 4L4.5 19L19 19L19 23L4.5 23L4.5 41.5L22 41.5L22 45.5L0 45.5L0 0L22 0L22 4L4.5 4L4.5 19L19 19L19 23L4.5 23L4.5 41.5L22 41.5L22 45.5L0 45.5L0 0Z"/>
	</g>
	<defs>
		<clipPath id="clip_4">
			<rect x="-76" y="-142" width="1300" height="674" clip-rule="evenodd"/>
		</clipPath>
	</defs>
	<g clip-path="url(#clip_4)">
		<path fill="rgb(29,29,27)" stroke="none" transform="translate(6 80)" d="M4.50002 46.5L8.04553 31.524L20.4545 31.524L23.9996 46.5L28.5 45.269L16.9774 0L11.5226 0L0 45.269L4.50002 46.5ZM9.5 27.5L14.6799 6L14.8201 6L20 27.5L9.5 27.5Z" fill-rule="evenodd"/>
	</g>
	<defs>
		<clipPath id="clip_5">
			<rect x="-76" y="-142" width="1300" height="674" clip-rule="evenodd"/>
		</clipPath>
	</defs>
	<g clip-path="url(#clip_5)">
		<path fill="rgb(29,29,27)" stroke="none" transform="translate(68 80)" d="M22.4313 12.1034C22.4313 3.89792 16.7726 0 12.273 0L0 0L0 45.611L4.56802 45.611L4.56802 25.3015L9.68175 25.3015L19.9089 46.5L24 44.5171L14.5908 24.9595C20.1817 23.0445 22.4313 17.7113 22.4313 12.1034ZM17.5 12.4557C17.5 18.5762 15.0627 21.5 11.1357 21.5L4.5 21.5L4.5 4.5L10.0521 4.5C14.6561 4.5 17.5 6.54016 17.5 12.4557Z" fill-rule="evenodd"/>
	</g>
	<defs>
		<clipPath id="clip_6">
			<rect x="-76" y="-142" width="1300" height="674" clip-rule="evenodd"/>
		</clipPath>
	</defs>
	<g clip-path="url(#clip_6)">
		<path fill="rgb(29,29,27)" stroke="none" transform="translate(123.5 80)" d="M10 4L0 4L0 0L24 0L24 4L14.5 4L14.5 45.5L10 45.5L10 4L0 4L0 0L24 0L24 4L14.5 4L14.5 45.5L10 45.5L10 4Z"/>
	</g>
	<defs>
		<clipPath id="clip_7">
			<rect x="-76" y="-142" width="1300" height="674" clip-rule="evenodd"/>
		</clipPath>
	</defs>
	<g clip-path="url(#clip_7)">
		<path fill="rgb(29,29,27)" stroke="none" transform="translate(65 160.5)" d="M24 11.5C23.8958 4.16105 18.8045 0 14 0L0 0L0 4L3.5 4L3.5 41.5L0 41.5L0 45.5L14.5 45.5C20.8406 45.5 26 41.3389 26 32C26 26.3995 24.1675 22.5111 19 20.5C22.4025 18.4182 23.8958 15.2125 24 11.5ZM12 19C16.8133 19 19 16.5609 19 12C19 6.26168 16.1982 4.5 10.5 4.5L8 4.5L8 19L12 19ZM14 41.5C18.2243 41.5 21 38.5186 21 32C21 25.2369 17.6823 23 13 23L8 23L8 41.5L14 41.5Z" fill-rule="evenodd"/>
	</g>
	<defs>
		<clipPath id="clip_8">
			<rect x="-76" y="-142" width="1300" height="674" clip-rule="evenodd"/>
		</clipPath>
	</defs>
	<g clip-path="url(#clip_8)">
		<path fill="rgb(29,29,27)" stroke="none" transform="translate(124.5 160.5)" d="M4.50047 23.7152C4.50047 36.112 5.91585 43 12.2497 43C20.0672 43 19.9995 31.7043 19.9995 23.7152C19.9995 15.0369 20.2012 4.5 12.2497 4.5C4.29848 4.5 4.50047 16.9659 4.50047 23.7152L4.50047 23.7152C4.50047 36.112 5.91585 43 12.2497 43C20.0672 43 19.9995 31.7043 19.9995 23.7152C19.9995 15.0369 20.2012 4.5 12.2497 4.5C4.29848 4.5 4.50047 16.9659 4.50047 23.7152M24.9998 23.4655C24.9998 29.2292 25.2027 47 12.5003 47C-0.337064 47 0.000845169 29.3663 0.000845169 23.4655C0.000845169 15.9179 0.474129 0 12.5003 0C25.2027 0 24.9998 17.428 24.9998 23.4655L24.9998 23.4655C24.9998 29.2292 25.2027 47 12.5003 47C-0.337064 47 0.000845169 29.3663 0.000845169 23.4655C0.000845169 15.9179 0.474129 0 12.5003 0C25.2027 0 24.9998 17.428 24.9998 23.4655"/>
	</g>
	<defs>
		<clipPath id="clip_9">
			<rect x="-76" y="-142" width="1300" height="674" clip-rule="evenodd"/>
		</clipPath>
	</defs>
	<g clip-path="url(#clip_9)">
		<path fill="rgb(29,29,27)" stroke="none" transform="translate(8 239.5)" d="M4.50047 23.7149C4.50047 36.112 5.91585 43 12.25 43C20.0665 43 19.9995 31.704 19.9995 23.7149C19.9995 15.0369 20.2012 4.5 12.25 4.5C4.29848 4.5 4.50047 16.9659 4.50047 23.7149L4.50047 23.7149C4.50047 36.112 5.91585 43 12.25 43C20.0665 43 19.9995 31.704 19.9995 23.7149C19.9995 15.0369 20.2012 4.5 12.25 4.5C4.29848 4.5 4.50047 16.9659 4.50047 23.7149M24.9998 23.4652C24.9998 29.2292 25.2023 47 12.5003 47C-0.337064 47 0.000845169 29.3663 0.000845169 23.4652C0.000845169 15.9179 0.473778 0 12.5003 0C25.2023 0 24.9998 17.428 24.9998 23.4652L24.9998 23.4652C24.9998 29.2292 25.2023 47 12.5003 47C-0.337064 47 0.000845169 29.3663 0.000845169 23.4652C0.000845169 15.9179 0.473778 0 12.5003 0C25.2023 0 24.9998 17.428 24.9998 23.4652"/>
	</g>
	<defs>
		<clipPath id="clip_10">
			<rect x="-76" y="-142" width="1300" height="674" clip-rule="evenodd"/>
		</clipPath>
	</defs>
	<g clip-path="url(#clip_10)">
		<path fill="rgb(29,29,27)" stroke="none" transform="translate(67.5 239.5)" d="M4.5 19.5L6 19.5L18.5 0L22 2.5L9.5 21.5L24.5 44.5L20.5 47L6 23.5L4.5 23.5L4.5 46L0 46L0 1L4.5 1L4.5 19.5L6 19.5L18.5 0L22 2.5L9.5 21.5L24.5 44.5L20.5 47L6 23.5L4.5 23.5L4.5 46L0 46L0 1L4.5 1L4.5 19.5Z"/>
	</g>
	<defs>
		<clipPath id="clip_11">
			<rect x="-76" y="-142" width="1300" height="674" clip-rule="evenodd"/>
		</clipPath>
	</defs>
	<g clip-path="url(#clip_11)">
		<path fill="rgb(29,29,27)" stroke="none" transform="translate(126.5 239.5)" d="M17.9795 11.0466C17.2331 7.68467 15.6043 4.32278 11.7369 4.32278C7.46282 4.32278 5.7673 7.82179 5.7673 11.6639C5.7673 15.369 6.51266 16.5356 13.6372 20.8583C19.2008 24.2202 23 27.0333 23 34.1006C23 41.3046 19.2008 47 11.6017 47C3.59582 47 0.678631 41.6478 0 34.3752L4.54562 33.7578C5.15682 38.8347 6.2422 42.6772 11.7369 42.6772C15.6721 42.6772 18.4544 40.0009 18.4544 34.5123C18.4544 28.4741 14.5874 26.4163 9.90582 23.671C4.68156 20.5837 1.22132 18.3877 1.22132 11.6639C1.22132 5.48864 5.29205 0 11.7369 0C18.1151 0 21.236 4.59702 22.3892 10.3603L17.9795 11.0466C17.2331 7.68467 15.6043 4.32278 11.7369 4.32278C7.46282 4.32278 5.7673 7.82179 5.7673 11.6639C5.7673 15.369 6.51266 16.5356 13.6372 20.8583C19.2008 24.2202 23 27.0333 23 34.1006C23 41.3046 19.2008 47 11.6017 47C3.59582 47 0.678631 41.6478 0 34.3752L4.54562 33.7578C5.15682 38.8347 6.2422 42.6772 11.7369 42.6772C15.6721 42.6772 18.4544 40.0009 18.4544 34.5123C18.4544 28.4741 14.5874 26.4163 9.90582 23.671C4.68156 20.5837 1.22132 18.3877 1.22132 11.6639C1.22132 5.48864 5.29205 0 11.7369 0C18.1151 0 21.236 4.59702 22.3892 10.3603L17.9795 11.0466Z"/>
	</g>
</svg>
