<svg width="66px" height="144px" viewBox="0 0 66 144" version="1.1" xmlns="http://www.w3.org/2000/svg" xmlns:xlink="http://www.w3.org/1999/xlink">
    <desc>Created with Sketch.</desc>
    <defs></defs>
    <g id="Page-1" stroke="none" stroke-width="1" fill="none" fill-rule="evenodd">
        <g id="404" transform="translate(-1065.000000, -97.000000)">
            <g id="ШАПКА" transform="translate(64.000000, 0.000000)">
                <g id="V-LOGO-Copy" transform="translate(1001.000000, 97.000000)">
                    <path d="M3.71741799,89.3345739 C3.36087067,88.5745093 3.18304026,87.8651507 3.18304026,87.2070245 C3.18304026,86.4629261 3.40430881,85.7718147 3.84808699,85.1331639 C4.29097869,84.4943376 4.85549716,83.9793816 5.54004673,83.5874184 C6.2251282,83.1959816 6.93556335,83 7.67206139,83 C8.4950811,83 9.18211285,83.2254578 9.73244745,83.675847 C10.2826047,84.1265871 10.5575947,84.6650539 10.5575947,85.2915984 C10.5575947,85.7618139 10.4247982,86.1965877 10.1597369,86.5962708 C9.89467559,86.9959539 9.61543043,87.19562 9.32271058,87.19562 C9.18033987,87.19562 9.10888857,87.1210523 9.10888857,86.9722677 C9.10888857,86.9177017 9.14842613,86.7957615 9.22750127,86.6078507 C9.35409241,86.3025616 9.41738798,85.9927107 9.41738798,85.6797016 C9.41738798,85.2094862 9.223778,84.8273484 8.83584885,84.5336392 C8.4479197,84.2397546 7.98056081,84.0929 7.43465868,84.0929 C6.55578993,84.0929 5.73401131,84.4513515 4.9702093,85.1684301 C4.20623,85.8851577 3.82432899,86.7061047 3.82432899,87.6303939 C3.82432899,88.0456924 3.87946883,88.396073 3.9902804,88.6822377 C4.10109198,88.968227 4.20215213,89.1543831 4.29346087,89.2403554 C4.38441501,89.326854 4.51313373,89.3698401 4.67926244,89.3698401 C5.77195319,89.3698401 6.31803262,89.6828492 6.31803262,90.3097446 C6.31803262,90.4666 6.2607652,90.6155601 6.14605306,90.7564492 C6.03098633,90.897163 5.86290733,90.9678707 5.64128419,90.9678707 C5.39554844,90.9678707 5.08297116,90.8075062 4.70319774,90.4858999 C4.29931172,90.1414847 3.90340413,89.9690138 3.51565228,89.9690138 C3.01673425,89.9690138 2.54352451,90.213947 2.09620036,90.7034623 C1.6490535,91.193504 1.42530277,91.7751324 1.42530277,92.4486985 C1.42530277,93.7572308 2.08254837,94.9927745 3.39650767,96.1563823 C4.71099887,97.31999 6.34569119,97.9016184 8.30129382,97.9016184 C10.153886,97.9016184 11.7392894,97.4456147 13.0576811,96.5327301 C14.3758956,95.6198454 15.0347369,94.5288754 15.0347369,93.2596446 C15.0347369,92.4136077 14.7101033,91.6789839 14.0610134,91.0562993 C13.4117463,90.4334393 12.5328775,90.1216584 11.4247618,90.1216584 C10.5299362,90.1216584 9.73244745,90.3646615 9.03176371,90.8504923 C8.33107998,91.3363231 7.98056081,91.9433923 7.98056081,92.6718753 C7.98056081,93.1106846 8.10750655,93.4712416 8.36068883,93.7533708 C8.61387111,94.0351492 8.87520912,94.1762138 9.14452557,94.1762138 C9.45320228,94.1762138 9.60762929,94.0118139 9.60762929,93.6828385 L9.59575029,93.5417739 C9.58777186,93.4396599 9.58404859,93.3693031 9.58404859,93.3300015 C9.58404859,92.9855862 9.678726,92.7013515 9.8691446,92.4781746 C10.0592086,92.2549978 10.3003346,92.1430584 10.5932317,92.1430584 C10.870172,92.1430584 11.1118299,92.239207 11.3178508,92.4308022 C11.5235171,92.6230993 11.6263502,92.8913677 11.6263502,93.2359584 C11.6263502,93.7296846 11.4541933,94.1409477 11.1098796,94.4700985 C10.7655659,94.7990738 10.3242699,94.9638247 9.7858143,94.9638247 C9.14452557,94.9638247 8.59224069,94.7387178 8.12895967,94.2878023 C7.66603324,93.8374131 7.43465868,93.2833309 7.43465868,92.6252047 C7.43465868,91.6612631 7.84226797,90.7841709 8.65766384,89.9927001 C9.47270512,89.2012292 10.9535023,88.8054061 13.099169,88.8054061 C15.0230352,88.8054061 16.4203248,88.5431031 17.2910378,88.0183216 C18.1621054,87.5012601 18.5977279,86.7136492 18.5977279,85.6560154 C18.5977279,85.0292954 18.4034087,84.5141639 18.0156568,84.1107962 C17.6275504,83.7072531 17.1367881,83.5053061 16.5430153,83.5053061 C16.2501182,83.5053061 16.030268,83.5463623 15.8838195,83.6288254 C15.7373709,83.7111131 15.6641466,83.8386678 15.6641466,84.0106123 C15.6641466,84.1202707 15.7354206,84.2769507 15.8779686,84.4808277 C16.0600542,84.7394462 16.1513629,84.9899938 16.1513629,85.2328215 C16.1513629,85.5230216 16.0384238,85.7777801 15.8125455,85.9967461 C15.5868445,86.2165894 15.3081312,86.3258969 14.9755192,86.3258969 C14.5796116,86.3258969 14.278736,86.2006231 14.0727151,85.9497246 C13.8666942,85.6990015 13.7642157,85.4051169 13.7642157,85.0684216 C13.7642157,84.5357447 14.0273267,84.0576338 14.553726,83.6347908 C15.0801253,83.2115969 15.7513775,83 16.5669506,83 C17.4057499,83 18.1044834,83.30371 18.6629737,83.9107792 C19.2211094,84.5180239 19.5,85.2486123 19.5,86.1025446 C19.5,86.9094553 19.260647,87.6461847 18.7817637,88.3122062 C18.3027031,88.9780524 17.6968741,89.4480923 16.9648085,89.7221507 C16.2323883,89.9963846 15.2051207,90.1569246 13.8828284,90.2039461 C15.149449,91.08946 15.7832912,92.2255216 15.7832912,93.6123062 C15.7832912,94.6539738 15.3950075,95.661077 14.6191491,96.6323877 C13.8432908,97.6040493 12.9034314,98.3248123 11.7988617,98.7946768 C10.6944692,99.2648923 9.34629128,99.5 7.7548598,99.5 C6.4644812,99.5 5.41948374,99.3610408 4.61969014,99.0827715 C3.81989653,98.8048532 3.05822211,98.3993801 2.33395767,97.8663523 C1.60933863,97.3338508 1.0395012,96.6815146 0.62373618,95.9098701 C0.208148458,95.1382255 0,94.309383 0,93.4243955 C0,92.3429 0.31310918,91.4340507 0.938441046,90.6976723 C1.56377291,89.9612939 2.48980306,89.5068693 3.71741799,89.3345739" id="Fill-1" fill="#F7F9F9"></path>
                    <path d="M5,23 L5,1 L7.16764706,1 L7.16764706,10.2353823 L13.8323529,10.2353823 L13.8323529,1 L16,1 L16,23 L13.8323529,23 L13.8323529,12.2143928 L7.16764706,12.2143928 L7.16764706,23 L5,23 Z M40.2999995,5.68299695 L38.1549995,6.01299695 C37.7919995,4.39599695 36.9999995,2.77899695 35.1189995,2.77899695 C33.0399995,2.77899695 32.2149995,4.46199695 32.2149995,6.30999695 C32.2149995,8.09199695 32.5779995,8.65299695 36.0429995,10.7319969 C38.7489995,12.3489969 40.5969995,13.7019969 40.5969995,17.1009969 C40.5969995,20.5659969 38.7489995,23.3049969 35.0529995,23.3049969 C31.1589995,23.3049969 29.7399995,20.7309969 29.4099995,17.2329969 L31.6209995,16.9359969 C31.9179995,19.3779969 32.4459995,21.2259969 35.1189995,21.2259969 C37.0329995,21.2259969 38.3859995,19.9389969 38.3859995,17.2989969 C38.3859995,14.3949969 36.5049995,13.4049969 34.2279995,12.0849969 C31.6869995,10.5999969 30.0039995,9.54399695 30.0039995,6.30999695 C30.0039995,3.33999695 31.9839995,0.699996948 35.1189995,0.699996948 C38.2209995,0.699996948 39.7389995,2.91099695 40.2999995,5.68299695 Z M54.9000244,23.0079969 L54.9000244,0.996996948 L65.6250244,0.996996948 L65.6250244,2.97699695 L57.1110244,2.97699695 L57.1110244,10.2369969 L64.1400244,10.2369969 L64.1400244,12.2169969 L57.1110244,12.2169969 L57.1110244,21.0279969 L65.6250244,21.0279969 L65.6250244,23.0079969 L54.9000244,23.0079969 Z M13.9,56.2099969 L7.894,56.2099969 L6.178,63.4369969 L4,62.8429969 L9.577,40.9969969 L12.217,40.9969969 L17.794,62.8429969 L15.616,63.4369969 L13.9,56.2099969 Z M13.372,54.2299969 L10.93,43.9339969 L10.864,43.9339969 L8.422,54.2299969 L13.372,54.2299969 Z M57.9519512,63.0079969 L57.9519512,42.9769969 L53.1999512,42.9769969 L53.1999512,40.9969969 L64.8159512,40.9969969 L64.8159512,42.9769969 L60.1629512,42.9769969 L60.1629512,63.0079969 L57.9519512,63.0079969 Z M33.1059995,101.027997 L36.1089995,101.027997 C38.0889995,101.027997 39.4419995,99.5759969 39.4419995,96.3749969 C39.4419995,93.1079969 37.8249995,92.0189969 35.5149995,92.0189969 L33.1059995,92.0189969 L33.1059995,101.027997 Z M33.1059995,90.0389969 L35.0859995,90.0389969 C37.3629995,90.0389969 38.4189995,88.8509969 38.4189995,86.5409969 C38.4189995,83.8349969 37.0659995,82.9769969 34.3929995,82.9769969 L33.1059995,82.9769969 L33.1059995,90.0389969 Z M36.2079995,103.007997 L29.1129995,103.007997 L29.1129995,101.027997 L30.8949995,101.027997 L30.8949995,82.9769969 L29.1129995,82.9769969 L29.1129995,80.9969969 L35.8449995,80.9969969 C38.2539995,80.9969969 40.7289995,83.0099969 40.7289995,86.5409969 C40.7289995,88.3559969 40.0029995,89.9069969 38.3859995,90.7979969 C40.8609995,91.8869969 41.7519995,93.7679969 41.7519995,96.4079969 C41.7519995,100.994997 39.2439995,103.007997 36.2079995,103.007997 Z M59.076999,80.6999969 C65.280999,80.6999969 65.181999,89.0819969 65.181999,91.9859969 C65.181999,94.7579969 65.280999,103.304997 59.076999,103.304997 C52.806999,103.304997 52.971999,94.8239969 52.971999,91.9859969 C52.971999,88.3559969 53.202999,80.6999969 59.076999,80.6999969 Z M59.076999,82.7789969 C55.182999,82.7789969 55.281999,88.7519969 55.281999,91.9859969 C55.281999,97.9259969 55.974999,101.225997 59.076999,101.225997 C62.904999,101.225997 62.871999,95.8139969 62.871999,91.9859969 C62.871999,87.8279969 62.970999,82.7789969 59.076999,82.7789969 Z M10.897,120.699997 C17.101,120.699997 17.002,129.081997 17.002,131.985997 C17.002,134.757997 17.101,143.304997 10.897,143.304997 C4.627,143.304997 4.792,134.823997 4.792,131.985997 C4.792,128.355997 5.023,120.699997 10.897,120.699997 Z M10.897,122.778997 C7.003,122.778997 7.102,128.751997 7.102,131.985997 C7.102,137.925997 7.795,141.225997 10.897,141.225997 C14.725,141.225997 14.692,135.813997 14.692,131.985997 C14.692,127.827997 14.791,122.778997 10.897,122.778997 Z M33.0110488,120.996997 L33.0110488,130.071997 L33.6050488,130.071997 L39.7430488,120.567997 L41.5250488,121.689997 L35.4860488,130.995997 L42.7130488,142.314997 L40.8650488,143.436997 L33.7700488,132.051997 L33.0110488,132.051997 L33.0110488,143.007997 L30.8000488,143.007997 L30.8000488,120.996997 L33.0110488,120.996997 Z M64.389999,125.682997 L62.244999,126.012997 C61.881999,124.395997 61.089999,122.778997 59.208999,122.778997 C57.129999,122.778997 56.304999,124.461997 56.304999,126.309997 C56.304999,128.091997 56.667999,128.652997 60.132999,130.731997 C62.838999,132.348997 64.686999,133.701997 64.686999,137.100997 C64.686999,140.565997 62.838999,143.304997 59.142999,143.304997 C55.248999,143.304997 53.829999,140.730997 53.499999,137.232997 L55.710999,136.935997 C56.007999,139.377997 56.535999,141.225997 59.208999,141.225997 C61.122999,141.225997 62.475999,139.938997 62.475999,137.298997 C62.475999,134.394997 60.594999,133.404997 58.317999,132.084997 C55.776999,130.599997 54.093999,129.543997 54.093999,126.309997 C54.093999,123.339997 56.073999,120.699997 59.208999,120.699997 C62.310999,120.699997 63.828999,122.910997 64.389999,125.682997 Z M30.9000244,63.0079969 L30.9000244,40.9969969 L36.8400244,40.9969969 C39.0180244,40.9969969 41.7570244,42.8779969 41.7570244,46.8379969 C41.7570244,49.5439969 40.6680244,52.1179969 37.9620244,53.0419969 L42.5160244,62.4799969 L40.5360244,63.4369969 L35.5860244,53.2069969 L33.1110244,53.2069969 L33.1110244,63.0079969 L30.9000244,63.0079969 Z M33.1110244,42.9769969 L33.1110244,51.2269969 L36.3450244,51.2269969 C38.2590244,51.2269969 39.4470244,49.8079969 39.4470244,46.8379969 C39.4470244,43.9669969 38.0610244,42.9769969 35.8170244,42.9769969 L33.1110244,42.9769969 Z" id="HSE-ART-BO-OKS" fill="#17181A"></path>
                </g>
            </g>
        </g>
    </g>
</svg>