<?xml version="1.0" encoding="utf-8" ?>
<svg xmlns="http://www.w3.org/2000/svg" xmlns:xlink="http://www.w3.org/1999/xlink" width="87" height="166">
	<defs>
		<clipPath id="clip_0">
			<rect x="-28" y="-31" width="320" height="1456" clip-rule="evenodd"/>
		</clipPath>
	</defs>
	<g clip-path="url(#clip_0)">
		<path fill="rgb(190,24,35)" stroke="none" transform="translate(0 97)" d="M4.19401 7.29436C3.79175 6.41913 3.59112 5.60229 3.59112 4.84445C3.59112 3.98761 3.84076 3.19179 4.34143 2.45637C4.8411 1.72075 5.478 1.12777 6.25031 0.676421C7.02322 0.225676 7.82474 0 8.65566 0C9.58419 0 10.3593 0.259618 10.9802 0.778248C11.6009 1.29728 11.9111 1.91733 11.9111 2.63881C11.9111 3.18027 11.7613 3.68092 11.4623 4.14116C11.1632 4.6014 10.8482 4.83132 10.5179 4.83132C10.3573 4.83132 10.2767 4.74545 10.2767 4.57413C10.2767 4.51129 10.3213 4.37088 10.4105 4.15449C10.5533 3.80295 10.6247 3.44615 10.6247 3.08572C10.6247 2.54426 10.4063 2.10422 9.96865 1.76601C9.53099 1.4276 9.00371 1.25849 8.38782 1.25849C7.39628 1.25849 6.46914 1.67125 5.60742 2.49698C4.74549 3.3223 4.31463 4.26764 4.31463 5.33197C4.31463 5.81019 4.37684 6.21366 4.50185 6.54318C4.62687 6.8725 4.74089 7.08687 4.8439 7.18586C4.94652 7.28547 5.09174 7.33497 5.27917 7.33497C6.51195 7.33497 7.12804 7.6954 7.12804 8.41728C7.12804 8.5979 7.06343 8.76943 6.93401 8.93167C6.80419 9.0937 6.61456 9.17512 6.36453 9.17512C6.08729 9.17512 5.73463 8.99046 5.30617 8.62013C4.85051 8.22353 4.40384 8.02493 3.96638 8.02493C3.4035 8.02493 2.86962 8.30697 2.36494 8.87065C1.86047 9.43494 1.60803 10.1047 1.60803 10.8803C1.60803 12.3871 2.34954 13.8099 3.83196 15.1498C5.31497 16.4897 7.15924 17.1594 9.36556 17.1594C11.4557 17.1594 13.2443 16.6343 14.7317 15.5831C16.219 14.5319 16.9623 13.2757 16.9623 11.8141C16.9623 10.8399 16.596 9.99398 15.8637 9.27695C15.1312 8.55972 14.1397 8.2007 12.8895 8.2007C11.8799 8.2007 10.9802 8.48052 10.1897 9.03996C9.39917 9.5994 9.00371 10.2985 9.00371 11.1373C9.00371 11.6426 9.14693 12.0578 9.43257 12.3827C9.71821 12.7071 10.0131 12.8696 10.3169 12.8696C10.6652 12.8696 10.8394 12.6803 10.8394 12.3015L10.826 12.139C10.817 12.0214 10.8128 11.9404 10.8128 11.8952C10.8128 11.4986 10.9196 11.1713 11.1344 10.9143C11.3489 10.6573 11.6209 10.5284 11.9513 10.5284C12.2638 10.5284 12.5364 10.6391 12.7689 10.8597C13.0009 11.0811 13.1169 11.3901 13.1169 11.7869C13.1169 12.3554 12.9227 12.829 12.5342 13.208C12.1458 13.5868 11.6479 13.7765 11.0404 13.7765C10.3169 13.7765 9.69381 13.5173 9.17113 12.9981C8.64886 12.4794 8.38782 11.8414 8.38782 11.0836C8.38782 9.97358 8.84769 8.96359 9.76762 8.0522C10.6872 7.14081 12.3578 6.68501 14.7786 6.68501C16.9491 6.68501 18.5255 6.38297 19.5078 5.77867C20.4906 5.18327 20.9821 4.27632 20.9821 3.05844C20.9821 2.33676 20.7628 1.74358 20.3254 1.2791C19.8875 0.814413 19.3338 0.581868 18.6639 0.581868C18.3335 0.581868 18.0854 0.629144 17.9202 0.724102C17.755 0.818858 17.6724 0.965739 17.6724 1.16374C17.6724 1.29001 17.7528 1.47043 17.9136 1.7052C18.119 2.003 18.222 2.29151 18.222 2.57113C18.222 2.9053 18.0946 3.19866 17.8398 3.4508C17.5852 3.70395 17.2707 3.82982 16.8955 3.82982C16.4488 3.82982 16.1093 3.68557 15.8769 3.39665C15.6445 3.10794 15.5289 2.76953 15.5289 2.38182C15.5289 1.76843 15.8257 1.21788 16.4196 0.730971C17.0135 0.243657 17.7708 0 18.6909 0C19.6373 0 20.4256 0.349727 21.0557 1.04878C21.6854 1.74803 22 2.58931 22 3.57263C22 4.5018 21.73 5.35015 21.1897 6.11709C20.6492 6.88382 19.9657 7.42508 19.1398 7.74066C18.3135 8.05644 17.1545 8.24131 15.6627 8.29545C17.0917 9.31514 17.8068 10.6233 17.8068 12.2202C17.8068 13.4197 17.3687 14.5794 16.4934 15.6979C15.6181 16.8168 14.5577 17.6468 13.3115 18.1878C12.0656 18.7293 10.5445 19 8.74907 19C7.29326 19 6.11429 18.84 5.21196 18.5196C4.30963 18.1995 3.4503 17.7326 2.63318 17.1188C1.81566 16.5056 1.17277 15.7545 0.703702 14.8659C0.234834 13.9774 0 13.0229 0 12.0038C0 10.7585 0.353251 9.71194 1.05875 8.86399C1.76426 8.01604 2.80901 7.49276 4.19401 7.29436L4.19401 7.29436C3.79175 6.41913 3.59112 5.60229 3.59112 4.84445C3.59112 3.98761 3.84076 3.19179 4.34143 2.45637C4.8411 1.72075 5.478 1.12777 6.25031 0.676421C7.02322 0.225676 7.82474 0 8.65566 0C9.58419 0 10.3593 0.259618 10.9802 0.778248C11.6009 1.29728 11.9111 1.91733 11.9111 2.63881C11.9111 3.18027 11.7613 3.68092 11.4623 4.14116C11.1632 4.6014 10.8482 4.83132 10.5179 4.83132C10.3573 4.83132 10.2767 4.74545 10.2767 4.57413C10.2767 4.51129 10.3213 4.37088 10.4105 4.15449C10.5533 3.80295 10.6247 3.44615 10.6247 3.08572C10.6247 2.54426 10.4063 2.10422 9.96865 1.76601C9.53099 1.4276 9.00371 1.25849 8.38782 1.25849C7.39628 1.25849 6.46914 1.67125 5.60742 2.49698C4.74549 3.3223 4.31463 4.26764 4.31463 5.33197C4.31463 5.81019 4.37684 6.21366 4.50185 6.54318C4.62687 6.8725 4.74089 7.08687 4.8439 7.18586C4.94652 7.28547 5.09174 7.33497 5.27917 7.33497C6.51195 7.33497 7.12804 7.6954 7.12804 8.41728C7.12804 8.5979 7.06343 8.76943 6.93401 8.93167C6.80419 9.0937 6.61456 9.17512 6.36453 9.17512C6.08729 9.17512 5.73463 8.99046 5.30617 8.62013C4.85051 8.22353 4.40384 8.02493 3.96638 8.02493C3.4035 8.02493 2.86962 8.30697 2.36494 8.87065C1.86047 9.43494 1.60803 10.1047 1.60803 10.8803C1.60803 12.3871 2.34954 13.8099 3.83196 15.1498C5.31497 16.4897 7.15924 17.1594 9.36556 17.1594C11.4557 17.1594 13.2443 16.6343 14.7317 15.5831C16.219 14.5319 16.9623 13.2757 16.9623 11.8141C16.9623 10.8399 16.596 9.99398 15.8637 9.27695C15.1312 8.55972 14.1397 8.2007 12.8895 8.2007C11.8799 8.2007 10.9802 8.48052 10.1897 9.03996C9.39917 9.5994 9.00371 10.2985 9.00371 11.1373C9.00371 11.6426 9.14693 12.0578 9.43257 12.3827C9.71821 12.7071 10.0131 12.8696 10.3169 12.8696C10.6652 12.8696 10.8394 12.6803 10.8394 12.3015L10.826 12.139C10.817 12.0214 10.8128 11.9404 10.8128 11.8952C10.8128 11.4986 10.9196 11.1713 11.1344 10.9143C11.3489 10.6573 11.6209 10.5284 11.9513 10.5284C12.2638 10.5284 12.5364 10.6391 12.7689 10.8597C13.0009 11.0811 13.1169 11.3901 13.1169 11.7869C13.1169 12.3554 12.9227 12.829 12.5342 13.208C12.1458 13.5868 11.6479 13.7765 11.0404 13.7765C10.3169 13.7765 9.69381 13.5173 9.17113 12.9981C8.64886 12.4794 8.38782 11.8414 8.38782 11.0836C8.38782 9.97358 8.84769 8.96359 9.76762 8.0522C10.6872 7.14081 12.3578 6.68501 14.7786 6.68501C16.9491 6.68501 18.5255 6.38297 19.5078 5.77867C20.4906 5.18327 20.9821 4.27632 20.9821 3.05844C20.9821 2.33676 20.7628 1.74358 20.3254 1.2791C19.8875 0.814413 19.3338 0.581868 18.6639 0.581868C18.3335 0.581868 18.0854 0.629144 17.9202 0.724102C17.755 0.818858 17.6724 0.965739 17.6724 1.16374C17.6724 1.29001 17.7528 1.47043 17.9136 1.7052C18.119 2.003 18.222 2.29151 18.222 2.57113C18.222 2.9053 18.0946 3.19866 17.8398 3.4508C17.5852 3.70395 17.2707 3.82982 16.8955 3.82982C16.4488 3.82982 16.1093 3.68557 15.8769 3.39665C15.6445 3.10794 15.5289 2.76953 15.5289 2.38182C15.5289 1.76843 15.8257 1.21788 16.4196 0.730971C17.0135 0.243657 17.7708 0 18.6909 0C19.6373 0 20.4256 0.349727 21.0557 1.04878C21.6854 1.74803 22 2.58931 22 3.57263C22 4.5018 21.73 5.35015 21.1897 6.11709C20.6492 6.88382 19.9657 7.42508 19.1398 7.74066C18.3135 8.05644 17.1545 8.24131 15.6627 8.29545C17.0917 9.31514 17.8068 10.6233 17.8068 12.2202C17.8068 13.4197 17.3687 14.5794 16.4934 15.6979C15.6181 16.8168 14.5577 17.6468 13.3115 18.1878C12.0656 18.7293 10.5445 19 8.74907 19C7.29326 19 6.11429 18.84 5.21196 18.5196C4.30963 18.1995 3.4503 17.7326 2.63318 17.1188C1.81566 16.5056 1.17277 15.7545 0.703702 14.8659C0.234834 13.9774 0 13.0229 0 12.0038C0 10.7585 0.353251 9.71194 1.05875 8.86399C1.76426 8.01604 2.80901 7.49276 4.19401 7.29436"/>
	</g>
	<defs>
		<clipPath id="clip_1">
			<rect x="-28" y="-31" width="320" height="1456" clip-rule="evenodd"/>
		</clipPath>
	</defs>
	<g clip-path="url(#clip_1)">
		<path fill="rgb(29,29,27)" stroke="none" transform="translate(5 0)" d="M0 0L2.54348 0L2.54348 10.8571L10.4565 10.8571L10.4565 0L13 0L13 26L10.4565 26L10.4565 13.1429L2.54348 13.1429L2.54348 26L0 26L0 0L2.54348 0L2.54348 10.8571L10.4565 10.8571L10.4565 0L13 0L13 26L10.4565 26L10.4565 13.1429L2.54348 13.1429L2.54348 26L0 26L0 0Z"/>
	</g>
	<defs>
		<clipPath id="clip_2">
			<rect x="-28" y="-31" width="320" height="1456" clip-rule="evenodd"/>
		</clipPath>
	</defs>
	<g clip-path="url(#clip_2)">
		<path fill="rgb(29,29,27)" stroke="none" transform="translate(38 0)" d="M10.1621 6.58109C9.74042 4.57828 8.8196 2.57526 6.63391 2.57526C4.21811 2.57526 3.25978 4.65997 3.25978 6.94889C3.25978 9.15613 3.68107 9.85132 7.708 12.4264C10.8526 14.4292 13 16.105 13 20.3153C13 24.607 10.8526 28 6.55748 28C2.03242 28 0.383574 24.8115 0 20.4787L2.56927 20.1111C2.91452 23.1356 3.5282 25.4247 6.63391 25.4247C8.85812 25.4247 10.4307 23.8306 10.4307 20.5603C10.4307 16.9634 8.24504 15.7372 5.59894 14.102C2.6461 12.2628 0.690313 10.9549 0.690313 6.94889C0.690313 3.27023 2.99116 0 6.63391 0C10.2389 0 12.0027 2.73884 12.6547 6.17223L10.1621 6.58109C9.74042 4.57828 8.8196 2.57526 6.63391 2.57526C4.21811 2.57526 3.25978 4.65997 3.25978 6.94889C3.25978 9.15613 3.68107 9.85132 7.708 12.4264C10.8526 14.4292 13 16.105 13 20.3153C13 24.607 10.8526 28 6.55748 28C2.03242 28 0.383574 24.8115 0 20.4787L2.56927 20.1111C2.91452 23.1356 3.5282 25.4247 6.63391 25.4247C8.85812 25.4247 10.4307 23.8306 10.4307 20.5603C10.4307 16.9634 8.24504 15.7372 5.59894 14.102C2.6461 12.2628 0.690313 10.9549 0.690313 6.94889C0.690313 3.27023 2.99116 0 6.63391 0C10.2389 0 12.0027 2.73884 12.6547 6.17223L10.1621 6.58109Z"/>
	</g>
	<defs>
		<clipPath id="clip_3">
			<rect x="-28" y="-31" width="320" height="1456" clip-rule="evenodd"/>
		</clipPath>
	</defs>
	<g clip-path="url(#clip_3)">
		<path fill="rgb(29,29,27)" stroke="none" transform="translate(72 0)" d="M0 0L12 0L12 2.28571L2.45455 2.28571L2.45455 10.8571L10.3636 10.8571L10.3636 13.1429L2.45455 13.1429L2.45455 23.7143L12 23.7143L12 26L0 26L0 0L12 0L12 2.28571L2.45455 2.28571L2.45455 10.8571L10.3636 10.8571L10.3636 13.1429L2.45455 13.1429L2.45455 23.7143L12 23.7143L12 26L0 26L0 0Z"/>
	</g>
	<defs>
		<clipPath id="clip_4">
			<rect x="-28" y="-31" width="320" height="1456" clip-rule="evenodd"/>
		</clipPath>
	</defs>
	<g clip-path="url(#clip_4)">
		<path fill="rgb(29,29,27)" stroke="none" transform="translate(4 46)" d="M2.52633 28L4.51679 18.9822L11.4832 18.9822L13.4735 28L16 27.2588L9.53119 0L6.46881 0L0 27.2588L2.52633 28ZM5.33333 16.5591L8.24133 3.6129L8.32007 3.6129L11.2281 16.5591L5.33333 16.5591Z" fill-rule="evenodd"/>
	</g>
	<defs>
		<clipPath id="clip_5">
			<rect x="-28" y="-31" width="320" height="1456" clip-rule="evenodd"/>
		</clipPath>
	</defs>
	<g clip-path="url(#clip_5)">
		<path fill="rgb(29,29,27)" stroke="none" transform="translate(40 46)" d="M12.1503 7.28806C12.1503 2.34714 9.08514 0 6.6479 0L0 0L0 27.4647L2.47434 27.4647L2.47434 15.2353L5.24428 15.2353L10.784 28L13 26.806L7.90333 15.0294C10.9318 13.8762 12.1503 10.6649 12.1503 7.28806ZM9.47917 7.50022C9.47917 11.1857 8.15897 12.9462 6.03181 12.9462L2.4375 12.9462L2.4375 2.70968L5.44491 2.70968C7.93872 2.70968 9.47917 3.93816 9.47917 7.50022Z" fill-rule="evenodd"/>
	</g>
	<defs>
		<clipPath id="clip_6">
			<rect x="-28" y="-31" width="320" height="1456" clip-rule="evenodd"/>
		</clipPath>
	</defs>
	<g clip-path="url(#clip_6)">
		<path fill="rgb(29,29,27)" stroke="none" transform="translate(72 46)" d="M5.41667 2.28571L0 2.28571L0 0L13 0L13 2.28571L7.85417 2.28571L7.85417 26L5.41667 26L5.41667 2.28571L0 2.28571L0 0L13 0L13 2.28571L7.85417 2.28571L7.85417 26L5.41667 26L5.41667 2.28571Z"/>
	</g>
	<defs>
		<clipPath id="clip_7">
			<rect x="-28" y="-31" width="320" height="1456" clip-rule="evenodd"/>
		</clipPath>
	</defs>
	<g clip-path="url(#clip_7)">
		<path fill="rgb(29,29,27)" stroke="none" transform="translate(38 93)" d="M13.8462 6.57143C13.786 2.37774 10.8488 0 8.07692 0L0 0L0 2.28571L2.01923 2.28571L2.01923 23.7143L0 23.7143L0 26L8.36538 26C12.0234 26 15 23.6223 15 18.2857C15 15.0854 13.9428 12.8635 10.9615 11.7143C12.9245 10.5247 13.786 8.69284 13.8462 6.57143ZM6.92308 10.8571C9.69998 10.8571 10.9615 9.4634 10.9615 6.85714C10.9615 3.5781 9.3451 2.57143 6.05769 2.57143L4.61538 2.57143L4.61538 10.8571L6.92308 10.8571ZM8.07692 23.7143C10.514 23.7143 12.1154 22.0106 12.1154 18.2857C12.1154 14.4211 10.2014 13.1429 7.5 13.1429L4.61538 13.1429L4.61538 23.7143L8.07692 23.7143Z" fill-rule="evenodd"/>
	</g>
	<defs>
		<clipPath id="clip_8">
			<rect x="-28" y="-31" width="320" height="1456" clip-rule="evenodd"/>
		</clipPath>
	</defs>
	<g clip-path="url(#clip_8)">
		<path fill="rgb(29,29,27)" stroke="none" transform="translate(72 93)" d="M2.70028 14.1282C2.70028 21.5135 3.54951 25.617 7.34979 25.617C12.0403 25.617 11.9997 18.8877 11.9997 14.1282C11.9997 8.95813 12.1207 2.68085 7.34979 2.68085C2.57909 2.68085 2.70028 10.1074 2.70028 14.1282L2.70028 14.1282C2.70028 21.5135 3.54951 25.617 7.34979 25.617C12.0403 25.617 11.9997 18.8877 11.9997 14.1282C11.9997 8.95813 12.1207 2.68085 7.34979 2.68085C2.57909 2.68085 2.70028 10.1074 2.70028 14.1282M14.9999 13.9795C14.9999 17.4131 15.1216 28 7.5002 28C-0.202238 28 0.000507101 17.4948 0.000507101 13.9795C0.000507101 9.48302 0.284478 0 7.5002 0C15.1216 0 14.9999 10.3827 14.9999 13.9795L14.9999 13.9795C14.9999 17.4131 15.1216 28 7.5002 28C-0.202238 28 0.000507101 17.4948 0.000507101 13.9795C0.000507101 9.48302 0.284478 0 7.5002 0C15.1216 0 14.9999 10.3827 14.9999 13.9795"/>
	</g>
	<defs>
		<clipPath id="clip_9">
			<rect x="-28" y="-31" width="320" height="1456" clip-rule="evenodd"/>
		</clipPath>
	</defs>
	<g clip-path="url(#clip_9)">
		<path fill="rgb(29,29,27)" stroke="none" transform="translate(4 138)" d="M2.70028 14.128C2.70028 21.5135 3.54951 25.617 7.35 25.617C12.0399 25.617 11.9997 18.8875 11.9997 14.128C11.9997 8.95813 12.1207 2.68085 7.35 2.68085C2.57909 2.68085 2.70028 10.1074 2.70028 14.128L2.70028 14.128C2.70028 21.5135 3.54951 25.617 7.35 25.617C12.0399 25.617 11.9997 18.8875 11.9997 14.128C11.9997 8.95813 12.1207 2.68085 7.35 2.68085C2.57909 2.68085 2.70028 10.1074 2.70028 14.128M14.9999 13.9793C14.9999 17.4131 15.1214 28 7.5002 28C-0.202239 28 0.000507101 17.4948 0.000507101 13.9793C0.000507101 9.48302 0.284267 0 7.5002 0C15.1214 0 14.9999 10.3827 14.9999 13.9793L14.9999 13.9793C14.9999 17.4131 15.1214 28 7.5002 28C-0.202239 28 0.000507101 17.4948 0.000507101 13.9793C0.000507101 9.48302 0.284267 0 7.5002 0C15.1214 0 14.9999 10.3827 14.9999 13.9793"/>
	</g>
	<defs>
		<clipPath id="clip_10">
			<rect x="-28" y="-31" width="320" height="1456" clip-rule="evenodd"/>
		</clipPath>
	</defs>
	<g clip-path="url(#clip_10)">
		<path fill="rgb(29,29,27)" stroke="none" transform="translate(39 138)" d="M2.7551 11.617L3.67347 11.617L11.3265 0L13.4694 1.48936L5.81633 12.8085L15 26.5106L12.551 28L3.67347 14L2.7551 14L2.7551 27.4043L0 27.4043L0 0.595745L2.7551 0.595745L2.7551 11.617L3.67347 11.617L11.3265 0L13.4694 1.48936L5.81633 12.8085L15 26.5106L12.551 28L3.67347 14L2.7551 14L2.7551 27.4043L0 27.4043L0 0.595745L2.7551 0.595745L2.7551 11.617Z"/>
	</g>
	<defs>
		<clipPath id="clip_11">
			<rect x="-28" y="-31" width="320" height="1456" clip-rule="evenodd"/>
		</clipPath>
	</defs>
	<g clip-path="url(#clip_11)">
		<path fill="rgb(29,29,27)" stroke="none" transform="translate(74 138)" d="M10.1623 6.58093C9.74042 4.5781 8.8198 2.57527 6.63391 2.57527C4.21811 2.57527 3.25978 4.65979 3.25978 6.94873C3.25978 9.15599 3.68107 9.85097 7.708 12.4262C10.8526 14.4291 13 16.1049 13 20.3152C13 24.607 10.8526 28 6.55748 28C2.03242 28 0.383574 24.8114 0 20.4788L2.56927 20.111C2.91472 23.1356 3.5282 25.4247 6.63391 25.4247C8.85812 25.4247 10.4307 23.8303 10.4307 20.5605C10.4307 16.9633 8.24504 15.7373 5.59894 14.1019C2.6461 12.2627 0.690313 10.9544 0.690313 6.94873C0.690313 3.26983 2.99116 0 6.63391 0C10.2389 0 12.0029 2.73865 12.6547 6.17207L10.1623 6.58093C9.74042 4.5781 8.8198 2.57527 6.63391 2.57527C4.21811 2.57527 3.25978 4.65979 3.25978 6.94873C3.25978 9.15599 3.68107 9.85097 7.708 12.4262C10.8526 14.4291 13 16.1049 13 20.3152C13 24.607 10.8526 28 6.55748 28C2.03242 28 0.383574 24.8114 0 20.4788L2.56927 20.111C2.91472 23.1356 3.5282 25.4247 6.63391 25.4247C8.85812 25.4247 10.4307 23.8303 10.4307 20.5605C10.4307 16.9633 8.24504 15.7373 5.59894 14.1019C2.6461 12.2627 0.690313 10.9544 0.690313 6.94873C0.690313 3.26983 2.99116 0 6.63391 0C10.2389 0 12.0029 2.73865 12.6547 6.17207L10.1623 6.58093Z"/>
	</g>
</svg>
